<?xml version="1.0" encoding="utf-8"?>
<!-- Generator: Adobe Illustrator 17.1.0, SVG Export Plug-In . SVG Version: 6.00 Build 0)  -->
<!DOCTYPE svg PUBLIC "-//W3C//DTD SVG 1.1//EN" "http://www.w3.org/Graphics/SVG/1.1/DTD/svg11.dtd">
<svg version="1.1" id="Layer_1" xmlns="http://www.w3.org/2000/svg" xmlns:xlink="http://www.w3.org/1999/xlink" x="0px" y="0px"
	 viewBox="0 0 8762.944 9095.844" enable-background="new 0 0 8762.944 9095.844" xml:space="preserve">
<g>
	<g>
		<ellipse fill="#344569" cx="4348.661" cy="4579.498" rx="2912.771" ry="2976.29"/>
		
			<ellipse fill="#FFFFFF" stroke="#344569" stroke-width="8.3197" stroke-miterlimit="10" cx="4317.056" cy="4548.223" rx="2250.174" ry="2259.549"/>
		<path fill="#344569" d="M4582.588,1255.827v287.056c0,64.416-52.258,116.674-116.674,116.674h-257.988
			c-64.497,0-116.755-52.258-116.755-116.674v-287.056c0-64.416,52.258-116.674,116.755-116.674h3.704
			c-1.449-61.517-2.979-123.035-4.428-184.553c-1.691-69.087-3.382-138.253-12.641-206.776
			c-17.956-133.02-64.336-262.255-67.558-396.482c-3.22-134.228,50.97-283.513,174.167-336.978
			c22.464-9.743,46.943-15.943,71.34-14.01c35.913,2.819,68.604,23.109,93.808,48.876c61.92,63.128,83.418,156.773,80.279,245.104
			c-3.141,88.331-28.021,174.246-46.783,260.645c-41.467,191.397-53.464,389.236-35.187,584.176h1.289
			C4530.33,1139.153,4582.588,1191.41,4582.588,1255.827z"/>
		<path fill="#344569" d="M6735.541,2420.13l-217.271,187.602c-48.756,42.099-122.462,36.697-164.561-12.059l-168.605-195.269
			c-42.151-48.817-36.75-122.523,12.006-164.622l217.271-187.602c48.756-42.099,122.462-36.698,164.614,12.12l2.42,2.803
			c45.615-41.3,91.178-82.662,136.792-123.964c51.186-46.431,102.433-92.914,148.247-144.704
			c88.947-100.524,156.453-220.089,255.943-310.25c99.492-90.16,247.9-146.707,368.881-88.402
			c22.056,10.636,42.746,25.112,57.228,44.84c21.337,29.024,27.344,67.028,24.313,102.945
			c-7.314,88.123-64.144,165.596-133.053,220.947c-68.91,55.351-150.199,92.668-227.854,134.932
			c-171.968,93.699-329.551,213.913-465.155,355.148l0.842,0.975C6789.698,2304.326,6784.297,2378.031,6735.541,2420.13z"/>
		<path fill="#344569" d="M7506.833,4761.909l-287.055-0.374c-64.416-0.084-116.606-52.41-116.522-116.826l0.335-257.988
			c0.084-64.497,52.41-116.687,116.826-116.603l287.055,0.374c64.416,0.084,116.606,52.409,116.522,116.906l-0.005,3.704
			c61.519-1.369,123.039-2.818,184.558-4.188c69.089-1.602,138.258-3.202,206.793-12.372
			c133.043-17.783,262.338-63.995,396.57-67.042c134.232-3.045,283.446,51.339,336.751,174.605
			c9.714,22.477,15.882,46.963,13.918,71.358c-2.865,35.909-23.198,68.574-48.998,93.744
			c-63.209,61.838-156.882,83.214-245.208,79.96c-88.327-3.255-174.21-28.248-260.584-47.122
			c-191.343-41.716-389.166-53.971-584.129-35.948l-0.002,1.289C7623.576,4709.803,7571.25,4761.993,7506.833,4761.909z"/>
		<path fill="#344569" d="M6472.046,7013.388l-199.357-206.537c-44.737-46.348-43.43-120.24,2.918-164.976l185.623-179.17
			c46.406-44.792,120.297-43.485,165.034,2.862l199.357,206.537c44.737,46.348,43.43,120.24-2.976,165.032l-2.665,2.572
			c43.766,43.256,87.59,86.456,131.356,129.711c49.197,48.533,98.449,97.125,152.7,139.997
			c105.3,83.238,228.423,144.012,323.961,238.352c95.537,94.341,160.224,239.386,108.715,363.414
			c-9.397,22.611-22.704,44.073-41.599,59.625c-27.797,22.913-65.41,31.018-101.438,29.982
			c-88.394-2.418-168.897-54.866-227.983-120.6c-59.086-65.735-100.852-144.831-147.355-220.024
			c-103.087-166.509-231.853-317.187-380.387-444.753l-0.927,0.895C6590.674,7061.042,6516.783,7059.735,6472.046,7013.388z"/>
		<path fill="#344569" d="M4594.37,7840.018v-287.056c0-64.416-52.258-116.674-116.674-116.674h-257.988
			c-64.497,0-116.754,52.258-116.754,116.674v287.056c0,64.416,52.258,116.674,116.754,116.674h3.704
			c-1.449,61.517-2.978,123.035-4.428,184.553c-1.692,69.087-3.382,138.254-12.642,206.776
			c-17.956,133.02-64.335,262.255-67.558,396.482c-3.22,134.228,50.97,283.513,174.167,336.979
			c22.464,9.742,46.943,15.942,71.34,14.011c35.913-2.819,68.604-23.109,93.808-48.876c61.919-63.129,83.418-156.774,80.278-245.104
			c-3.14-88.331-28.021-174.246-46.783-260.645c-41.467-191.397-53.465-389.236-35.188-584.176h1.289
			C4542.112,7956.691,4594.37,7904.434,4594.37,7840.018z"/>
		<path fill="#344569" d="M2027.404,2349.689l217.271,187.602c48.756,42.099,122.462,36.698,164.561-12.059l168.605-195.269
			c42.151-48.817,36.75-122.523-12.006-164.622l-217.271-187.602c-48.756-42.099-122.462-36.697-164.614,12.12l-2.42,2.803
			c-45.615-41.3-91.178-82.662-136.793-123.964c-51.186-46.431-102.433-92.914-148.246-144.704
			c-88.947-100.524-156.453-220.089-255.943-310.25c-99.492-90.16-247.9-146.707-368.881-88.402
			c-22.056,10.636-42.746,25.112-57.228,44.84c-21.337,29.024-27.344,67.028-24.313,102.945
			c7.314,88.123,64.144,165.596,133.053,220.947c68.91,55.351,150.199,92.668,227.855,134.932
			c171.968,93.699,329.551,213.913,465.155,355.148l-0.842,0.975C1973.246,2233.885,1978.647,2307.59,2027.404,2349.689z"/>
		<path fill="#344569" d="M1256.111,4691.468l287.055-0.374c64.416-0.083,116.606-52.409,116.522-116.826l-0.336-257.987
			c-0.084-64.497-52.41-116.687-116.826-116.603l-287.055,0.374c-64.416,0.083-116.606,52.409-116.522,116.906l0.005,3.704
			c-61.519-1.369-123.039-2.818-184.558-4.188c-69.089-1.602-138.258-3.202-206.793-12.372
			c-133.043-17.783-262.339-63.995-396.57-67.042c-134.232-3.045-283.446,51.339-336.751,174.605
			c-9.713,22.477-15.882,46.964-13.918,71.358c2.865,35.909,23.199,68.573,48.998,93.744
			c63.209,61.837,156.882,83.214,245.208,79.959c88.327-3.255,174.21-28.248,260.583-47.122
			c191.343-41.716,389.166-53.971,584.129-35.948l0.002,1.289C1139.369,4639.362,1191.694,4691.552,1256.111,4691.468z"/>
		<path fill="#344569" d="M2290.898,6942.947l199.357-206.537c44.736-46.348,43.429-120.24-2.918-164.977l-185.623-179.17
			c-46.406-44.792-120.298-43.485-165.034,2.862l-199.357,206.537c-44.736,46.348-43.429,120.24,2.976,165.032l2.665,2.572
			c-43.766,43.255-87.589,86.456-131.356,129.711c-49.197,48.533-98.449,97.125-152.7,139.997
			c-105.3,83.238-228.423,144.013-323.961,238.352c-95.537,94.341-160.224,239.386-108.715,363.414
			c9.397,22.611,22.703,44.072,41.599,59.625c27.797,22.913,65.41,31.017,101.439,29.982c88.393-2.418,168.897-54.866,227.983-120.6
			c59.086-65.736,100.851-144.831,147.355-220.025c103.088-166.509,231.852-317.187,380.387-444.753l0.927,0.895
			C2172.27,6990.601,2246.162,6989.294,2290.898,6942.947z"/>
		<path fill="#344569" d="M5446.604,5792.831c162.882,0,294.684-178.111,294.684-398.222H3041.344v477.866"/>
		
			<line fill="none" stroke="#344569" stroke-width="64.4163" stroke-miterlimit="10" x1="4188.223" y1="5394.609" x2="4188.223" y2="2933.598"/>
		<path fill="#344569" d="M3649.583,3866.65l-339.438,257.674l-231.073-257.674l462.146-515.347l216.73,7.108v-3.401
			c0,3.929,384.894,561.551,860.548,7.108l216.73-7.108l462.146,515.347L5066.3,4128.031l-339.438-257.673v1318.578H3649.583
			V3870.358"/>
		<polyline fill="#344569" points="4188.223,3243.175 3630.982,3243.175 4188.223,2933.598 		"/>
		<path fill="none" stroke="#344569" stroke-width="56.3643" stroke-miterlimit="10" d="M2113.998,5102.001
			c60.701,0.583,122.214,1.073,181.028-13.954c58.814-15.027,115.615-47.625,146.896-99.647
			c11.203,60.644,69.218,103.852,129.466,117.021c60.248,13.17,122.846,2.405,183.566-8.379"/>
		<path fill="none" stroke="#344569" stroke-width="56.3643" stroke-miterlimit="10" d="M3373.977,6175.992
			c60.701,0.583,122.214,1.073,181.028-13.954c58.814-15.027,115.615-47.625,146.896-99.648
			c11.203,60.645,69.218,103.853,129.466,117.022s122.846,2.405,183.566-8.379"/>
		<path fill="none" stroke="#344569" stroke-width="56.3643" stroke-miterlimit="10" d="M4188.223,6175.992
			c60.701,0.583,122.214,1.073,181.028-13.954c58.814-15.027,115.615-47.625,146.896-99.648
			c11.203,60.645,69.218,103.853,129.466,117.022c60.248,13.169,122.846,2.405,183.566-8.379"/>
		<path fill="none" stroke="#344569" stroke-width="56.3643" stroke-miterlimit="10" d="M4983.241,6175.992
			c60.701,0.583,122.214,1.073,181.028-13.954c58.814-15.027,115.615-47.625,146.896-99.648
			c11.203,60.645,69.218,103.853,129.466,117.022c60.248,13.169,122.846,2.405,183.566-8.379"/>
		<path fill="none" stroke="#344569" stroke-width="56.3643" stroke-miterlimit="10" d="M3750.36,6481.992
			c60.701,0.583,122.214,1.073,181.028-13.954c58.814-15.027,115.615-47.625,146.896-99.648
			c11.203,60.645,69.218,103.853,129.466,117.022c60.248,13.169,122.846,2.405,183.566-8.379"/>
		<path fill="none" stroke="#344569" stroke-width="56.3643" stroke-miterlimit="10" d="M4552.686,6481.992
			c60.701,0.583,122.214,1.073,181.028-13.954s115.614-47.625,146.896-99.648c11.203,60.645,69.218,103.853,129.466,117.022
			c60.248,13.169,122.846,2.405,183.566-8.379"/>
		<path fill="none" stroke="#344569" stroke-width="56.3643" stroke-miterlimit="10" d="M5420.81,5862.978
			c60.701,0.583,122.214,1.073,181.028-13.954c58.814-15.027,115.614-47.625,146.896-99.648
			c11.203,60.645,69.218,103.853,129.466,117.022c60.248,13.169,122.846,2.405,183.566-8.379"/>
		<path fill="none" stroke="#344569" stroke-width="56.3643" stroke-miterlimit="10" d="M4552.686,5862.978
			c60.701,0.583,122.214,1.073,181.028-13.954c58.814-15.027,115.615-47.625,146.896-99.648
			c11.203,60.645,69.218,103.853,129.466,117.022c60.248,13.169,122.846,2.405,183.566-8.379"/>
		<path fill="none" stroke="#344569" stroke-width="56.3643" stroke-miterlimit="10" d="M3694.455,5862.978
			c60.701,0.583,122.214,1.073,181.028-13.954c58.814-15.027,115.614-47.625,146.896-99.648
			c11.203,60.645,69.218,103.853,129.466,117.022c60.248,13.169,122.846,2.405,183.566-8.379"/>
		<path fill="none" stroke="#344569" stroke-width="56.3643" stroke-miterlimit="10" d="M2899.079,5862.978
			c60.701,0.583,122.214,1.073,181.028-13.954s115.615-47.625,146.896-99.648c11.203,60.645,69.218,103.853,129.466,117.022
			s122.846,2.405,183.566-8.379"/>
		<path fill="none" stroke="#344569" stroke-width="56.3643" stroke-miterlimit="10" d="M2522.971,5446.661
			c60.701,0.583,122.214,1.073,181.028-13.954c58.814-15.027,115.615-47.625,146.896-99.648
			c11.203,60.645,69.218,103.853,129.466,117.022s122.846,2.405,183.566-8.379"/>
		<path fill="none" stroke="#344569" stroke-width="56.3643" stroke-miterlimit="10" d="M6061.766,5102.001
			c60.701,0.583,122.214,1.073,181.028-13.954s115.614-47.625,146.896-99.647c11.203,60.644,69.218,103.852,129.466,117.021
			c60.248,13.17,122.846,2.405,183.566-8.379"/>
		<path fill="none" stroke="#344569" stroke-width="56.3643" stroke-miterlimit="10" d="M5836.228,5469.292
			c60.701,0.583,122.214,1.073,181.028-13.954c58.814-15.027,115.614-47.625,146.896-99.648
			c11.203,60.645,69.218,103.853,129.466,117.022c60.248,13.169,122.846,2.405,183.566-8.379"/>
		<path fill="none" stroke="#344569" stroke-width="56.3643" stroke-miterlimit="10" d="M2641.209,6175.992
			c60.701,0.583,122.214,1.073,181.028-13.954c58.814-15.027,115.614-47.625,146.896-99.648
			c11.203,60.645,69.218,103.853,129.466,117.022s122.846,2.405,183.566-8.379"/>
		<path fill="none" stroke="#344569" stroke-width="56.3643" stroke-miterlimit="10" d="M2202.494,5777.848
			c60.701,0.583,122.214,1.073,181.028-13.954c58.814-15.027,115.615-47.625,146.896-99.648
			c11.203,60.645,69.218,103.853,129.466,117.022s122.846,2.405,183.566-8.379"/>
	</g>
	<g>
		<g>
			<path fill="#FFFFFF" d="M2224.341,2818.457c-5.392,8.525-8.07,12.801-13.394,21.378c-2.011,2.361-3.757,3.933-5.239,4.709
				c-1.486,0.779-3.385,0.512-4.505-0.764c-5.332-6.073-3.32-18.589-1.659-27.392c3.611-19.148,11.058-37.892,19.413-55.177
				c9.032-18.686,20.135-37.022,34.493-52.619c8.765-9.521,19.546-20.258,32.128-23.77c10.268-2.866,20.796,3.34,27.934,10.638
				c1.861,2.149,2.792,3.223,4.654,5.371c6.896-26.749,14.954-53.693,28.12-77.681c10.575-19.266,23.462-37.9,39.716-52.696
				c12.227-11.13,25.899-22.05,42.679-25.918c11.788-2.717,24.014,0.788,31.951,10.013c14.204,16.508,18.936,41.513,23.984,61.925
				c3.177,12.846,6.176,26.01,9.404,38.821c4.585,18.194,8.532,41.489,20.637,55.875c10.084,11.985,26.595,8.894,38.505,0.408
				c8.11-5.779,13.49-8.515,15.726-8.355s4.102,0.853,4.937,1.99c6.922,9.418-3.223,25.178-8.7,34.533
				c-11.178,19.091-26.513,36.51-42.287,51.938c-16.136,15.782-52.335,50.89-76.339,27.118
				c-16.382-16.223-24.555-39.337-31.281-60.539c-3.747-11.811-7.154-24.049-10.582-36.066c-5.11-17.914-9.675-40.181-22.33-53.821
				c-9.982-10.759-25.956,4.533-32.951,11.287c-10.16,9.81-22.077,28.213-21.773,36.338c0.715,19.134,25.188,62.218,35.784,93.568
				c8.209,24.289,16.773,55.21,36.162,73.574c3.226,2.625,4.838,3.938,8.062,6.563c2.401,2.192,2.798,5.567,1.216,10.121
				c-1.583,4.557-3.986,8.627-7.208,12.22c-17.259,19.806-34.264,39.814-51.032,60.038c-9.421,11.144-16.728,16.828-21.711,16.628
				c-2.414-0.097-5.287-1.543-8.479-4.185c-3.19-2.639-7.242-7.324-11.521-13.949c-8.947-13.854-14.772-30.431-20.827-45.948
				c-8.672-22.225-17.098-44.918-25.764-67.082c-4.945-12.648-9.552-28.049-18.801-37.231c-4.147-4.117-8.433-6.166-11.211-6.168
				C2229.473,2814.148,2226.832,2815.583,2224.341,2818.457z"/>
			<path fill="#FFFFFF" d="M2705.399,2410.116c25.227-17.019,50.679-33.666,76.383-49.956c2.842-1.94,5.436-2.717,7.768-2.334
				c2.331,0.382,4.122,1.416,5.171,3.053c6.817,10.639,8.578,24.595,10.699,36.965c3.065,17.877,5.718,36.401,8.878,54.276
				c1.932,10.927,3.222,24.087,9.161,33.338c2.747,4.278,5.783,6.545,8.224,6.626c2.44,0.082,6.084-1.439,10.48-4.627
				c8.154-5.913,14.86-14.776,21.23-22.677c6.562-8.138,13.492-16.344,19.21-25.07c3.114-4.752,5.826-7.984,8.153-9.507
				c4.124-2.699,7.958-2.234,9.189,0.58c6.357,14.529-20.4,43.794-30.122,56.738c-9.392,12.505-20.302,24.097-31.329,34.889
				c-12.847,12.572-26.935,24.32-41.412,35.311c-15.642,11.876-57.321,13.203-59.175,13.99
				c-4.985,2.118-25.272,51.004-46.961,68.878c-15.431,12.717-33.489,23.075-53.282,26.985c-19.335,3.819-37.851-3.648-50.586-18.33
				c-15.807-18.222-21.608-40.374-21.948-63.489c-0.425-28.928,11.574-57.69,29.054-81.271
				c11.283-15.221,24.822-28.224,39.361-39.941c18.635-15.018,66.05-27.652,66.734-28.756c0.056-0.091-0.806-1.425-1.618-2.522
				c-1.674-2.127-2.511-3.19-4.186-5.317C2691.354,2423.733,2694.974,2417.748,2705.399,2410.116z M2705,2577.885
				c22.01-17.382,24.011-47.293,20.215-72.907c-1.698-11.457-4.274-24.248-11.144-33.745c-4.966-6.865-10.134-10.566-14.976-10.991
				c-4.843-0.425-11.608,2.55-19.972,9.018c-9.733,7.526-16.062,18.913-20.082,30.369c-4.64,13.223-6.927,28.061-4.929,41.561
				c1.681,11.36,3.967,22.481,11.38,31.943c5.775,7.372,12.416,11.3,19.36,11.772
				C2691.794,2585.377,2698.496,2583.022,2705,2577.885z"/>
			<path fill="#FFFFFF" d="M2868.323,2305.502c24.864-16.245,49.937-32.135,75.242-47.683c2.943-1.721,5.564-2.304,7.852-1.754
				c2.286,0.55,4.233,2.213,5.837,4.98c1.605,2.771,2.547,11.821,3.15,26.938c0.633,15.866,1.536,32.064,3.151,47.662
				c1.16,11.204,2.202,23.543,7.773,33.767c6.736,12.363,21.044,10.396,31.342,4.056c6.576-4.05,19.598-10.931,21.109-15.198
				c2.12-5.985-3.529-25.485-4.452-38.236c-2.138-29.549-2.97-61.442-12.268-89.426c-1.219-3.669,0.795-7.088,6.292-10.098
				c17.444-9.553,34.861-19.245,52.236-28.903c10.496-5.834,21.047-11.807,31.68-17.24c2.821-1.442,5.381-1.905,7.586-1.422
				c2.204,0.482,3.661,1.317,4.147,2.416c4.344,9.816,3.364,23.026,3.57,33.934c0.347,18.431,0.907,37.141,1.783,55.679
				c0.607,12.858,1.324,27.548,7.114,39.104c3.518,7.02,9.314,8.696,16.663,4.847c10.318-5.405,19.638-13.177,28.422-20.807
				c8.13-7.061,16.685-14.274,23.588-22.509c4.136-4.934,6.996-7.9,8.569-8.651c4.266-2.036,7.214-1.34,8.833,2.072
				s0.158,8.076-4.335,14.003c-4.494,5.932-10.16,12.53-16.971,19.757c-8.066,8.559-16.562,16.947-25.053,24.866
				c-22.542,21.027-47.74,39.102-74.791,54.466c-14.892,8.459-51.837,7.051-56.46,7.302c-2.906,0.158-13.573,15.802-20.537,23.425
				c-7.345,8.041-15.459,15.716-23.454,22.927c-9.308,8.395-19.242,16.223-29.724,23.154c-20.335,13.447-50.544,23.367-66.661-1.934
				c-5.928-9.306-9.481-19.585-12.336-29.839c-3.191-11.462-5.43-23.697-7.013-35.732c-2.201-16.731-1.994-38.422-10.063-52.759
				c-2.99-5.312-4.702-9.57-3.69-12.391C2857.465,2313.458,2861.416,2309.849,2868.323,2305.502z"/>
			<path fill="#FFFFFF" d="M3297.802,2087.186c15.077-8.02,30.208-15.929,45.399-23.731c8.921-3.438,14.476-2.277,16.641,3.406
				c2.166,5.686-0.71,10.914-8.514,15.467c-17.442,10.175-48.915,19.908-54.221,28.089c-3.923,6.047-1.961,28.949-3.06,43.345
				c-1.558,20.403-7.004,47.722-0.009,66.505c2.467,6.624,9.511,8.141,19.379,3.873c29.212-12.635,57.479-28.124,81.903-49.066
				c3.281-2.813,6.025-4.649,8.221-5.478c4.275-1.614,7.027-0.793,8.246,2.447s-0.349,7.505-4.675,12.688
				c-18.16,21.756-42.771,38.304-66.183,53.645c-27.874,18.265-57.39,35.948-87.37,49.351
				c-12.143,5.428-25.244,10.733-38.959,10.558c-10.186-0.13-17.717-4.173-20.831-11.354c-6.363-14.675-3.728-34.062-2.658-50.229
				c1.624-24.549,1.971-73.307,0.506-74.104c-1.224-0.666-12.027,6.111-14.818,7.42c-6.862,3.22-11.362,2.578-13.523-1.969
				c-1.576-3.315-1.526-6.069,0.153-8.256c1.678-2.185,3.608-4.08,5.784-5.682c2.174-1.599,4.079-2.867,5.712-3.802
				c1.63-0.934,3.927-2.206,6.889-3.809c2.96-1.601,6.261-2.999,6.493-3.515c1.328-2.944-4.169-15.109-7.104-21.496
				c-1.07-2.141-1.605-3.211-2.675-5.352c-1.971-4.289,3.628-10.29,16.388-17.976c13.478-8.119,26.621-17.411,39.843-26.075
				c13.514-8.855,27.37-18.863,41.909-25.219c8.448-3.693,14.204-2.856,16.081,1.968
				C3297.442,2060.895,3297.447,2074.262,3297.802,2087.186z"/>
			<path fill="#FFFFFF" d="M3512.914,2150.226c10.748-3.635,20.94-9.453,30.651-15.3c9.214-5.548,18.703-11.207,27.069-17.953
				c5.439-4.385,9.427-7.035,11.902-7.773c4.95-1.476,8.055-0.092,9.309,4.131c0.567,1.911-0.611,4.697-3.53,8.101
				c-15.231,17.766-37.077,31.016-56.635,43.664c-24.197,15.648-50.04,30.829-77.126,40.149
				c-12.529,4.311-25.523,7.875-39.092,7.616c-11.363-0.217-19.553-4.869-21.921-12.666c-3.792-12.483-0.496-28.67,0.917-42.47
				c3.087-30.161,8.276-65.135-2.239-94.541c-0.898-2.218-1.347-3.327-2.245-5.544c-1.811-4.921,3.146-9.553,14.911-13.774
				c29.765-11.219,59.679-21.982,89.768-32.301c3.185-1.02,5.827-1.006,7.911,0.037c2.084,1.043,3.496,2.554,4.034,4.415
				c3.421,11.844,0.977,25.568-0.547,37.74c-2.229,17.808-5.125,36.144-7.29,53.923c-1.428,11.722-3.643,24.988-0.139,36.365
				C3500.604,2150.484,3505.659,2152.68,3512.914,2150.226z M3503.993,1948.093c4.176,13.888-4.948,25.535-13.313,34.931
				c-10.862,12.201-26.442,22.056-42.303,27.04c-12.938,4.066-26.575,7.63-40.379,5.053c-10.749-2.007-17.641-6.933-20.384-14.53
				c-2.742-7.596-1.807-15.823,2.962-24.448c5.541-10.022,13.46-17.406,22.103-24.218c9.983-7.869,22.521-13.598,34.883-17.698
				c11.573-3.838,24.302-5.39,36.275-2.498C3494.715,1934.351,3501.54,1939.938,3503.993,1948.093z"/>
			<path fill="#FFFFFF" d="M3663.866,2026.513c-1.64,12.231-2.488,24.229,0.671,36.558c2.665,10.397,6.053,17.902,9.886,22.376
				c3.835,4.477,8.66,7.561,14.262,8.917c32.143,7.781,71.625-10.661,101.168-22.111c16.86-6.534,34.094-13.069,50.3-21.235
				c10.358-5.219,16.557-8.024,18.483-8.382c4.213-0.781,6.646,0.59,7.292,4.095c0.647,3.507-1.888,7.702-7.543,12.432
				c-19.386,16.216-42.746,27.644-65.51,38.262c-31.2,14.553-64.714,25.274-97.837,33.634c-28.062,7.083-59.17,13.159-88.198,5.906
				c-19.97-4.989-36.62-18.061-42.728-38.153c-3.7-12.172-4.225-25.26-1.407-37.703c2.969-13.112,8.948-25.434,17.086-36.122
				c9.313-12.23,20.467-22.553,32.288-31.903c27.696-21.905,61.783-35.377,95.828-43.506c29.555-7.057,67.549-16.604,95.325-7.611
				c2.149,0.696,3.765,3.237,4.492,6.886c0.728,3.652-0.005,10.081-2.147,19.271c-2.157,9.253-5.66,18.184-10.279,26.481
				c-4.707,8.454-9.58,13.235-14.706,14.324s-9.71-0.337-13.774-4.281c-4.065-3.945-7.472-7.146-10.206-9.603
				c-2.733-2.457-6.39-5.274-10.982-8.438c-4.593-3.164-8.769-5.392-12.506-6.691c-3.739-1.3-8.141-2.175-13.194-2.615
				c-5.056-0.44-10.958,0.137-17.69,1.747c-6.734,1.61-13.062,4.904-18.948,9.868c-5.889,4.967-10.303,10.621-13.249,16.938
				C3667.098,2012.175,3664.846,2019.209,3663.866,2026.513z"/>
			<path fill="#FFFFFF" d="M4054.099,1891.033c29.204-1.904,58.416-3.415,87.661-4.533c3.308-0.244,5.85,0.389,7.619,1.893
				c1.767,1.502,2.77,3.294,2.863,5.237c0.602,12.575-4.601,25.5-8.775,37.295c-6.006,16.971-12.663,34.295-18.582,51.309
				c-3.634,10.448-8.838,22.428-8.303,33.376c0.248,5.084,1.698,8.562,3.697,9.863c1.999,1.301,5.775,1.826,10.97,1.292
				c9.653-0.994,19.533-5.279,28.622-8.885c9.404-3.731,19.161-7.344,28.121-12.001c4.893-2.543,8.719-3.975,11.403-4.124
				c4.755-0.264,7.744,2.029,7.427,5.11c-1.604,15.586-37.972,27.527-52.475,33.883c-13.815,6.054-28.498,10.569-42.888,14.314
				c-16.702,4.348-34.059,7.352-51.388,9.489c-19.127,2.359-54.288-17.799-55.871-17.993c-4.977-0.61-44.926,30.446-71.58,35.178
				c-18.598,3.302-38.725,2.595-56.77-4.198c-18.188-6.846-29.583-22.971-33.106-41.674c-4.407-23.394,1.021-45.339,11.766-65.556
				c13.401-25.212,36.786-42.884,62.378-54.717c16.124-7.455,34.212-11.898,51.556-14.208c22.76-3.031,68.291,9.612,69.149,9.16
				c0.09-0.047,0.008-1.635-0.145-2.991c-0.38-2.679-0.57-4.019-0.95-6.698C4035.908,1895.646,4041.772,1892.331,4054.099,1891.033z
				 M3973.955,2035.114c27.03-3.79,42.64-29.053,51.432-52.385c4.067-10.795,7.987-23.083,6.797-34.687
				c-0.865-8.433-3.4-14.23-7.226-17.051c-3.826-2.822-10.875-3.694-20.899-2.379c-11.719,1.537-22.402,8.148-31.107,15.89
				c-10.218,9.086-19.11,20.699-23.796,33.172c-4.011,10.675-7.351,21.416-5.699,33.214c1.3,9.282,4.936,16.032,10.466,19.98
				C3959.453,2034.814,3966.123,2036.212,3973.955,2035.114z"/>
			<path fill="#FFFFFF" d="M4262.745,1812.062c31.995-1.465,63.99-2.462,96.014-2.995c3.397,0.012,5.945,0.84,7.631,2.474
				c1.686,1.635,2.602,3.537,2.509,5.442c-1.516,31.091-23.891,66.35-36.867,95.282c-12.618,28.135-33.565,63.098-34.405,93.223
				c-0.103,3.696,1.044,6.771,2.898,8.676c1.855,1.906,5.106,2.844,9.688,2.753c22.908-0.454,46.002-9.734,67.273-17.421
				c3.052-1.103,5.999-1.661,8.808-1.622c5.004,0.07,7.479,1.794,7.422,5.148c-0.048,2.83-2.597,5.72-7.617,8.691
				c-5.023,2.972-11.922,6.261-20.648,9.857c-10.431,4.298-21.087,8.177-31.69,11.941c-13.655,4.847-27.964,8.551-41.943,11.42
				c-15.979,3.279-32.808,5.343-49.006,5.916c-13.68,0.485-27.966,0.03-41.431-4.075c-9.657-2.944-16.912-11.515-16.842-21.304
				c0.206-28.949,18.544-62.936,29.15-90.604c7.728-20.159,15.096-40.72,21.363-61.169c4.61-15.042,9.655-31.075,9.399-47.182
				c-0.166-2.385-0.249-3.579-0.415-5.964C4243.842,1815.312,4250.076,1812.44,4262.745,1812.062z"/>
			<path fill="#FFFFFF" d="M4615.494,1947.819c15.967,1.239,31.923,2.617,47.867,4.134c8.701,1.001,12.792,3.667,12.276,7.934
				c-0.366,3.021-2.722,5.209-6.989,6.456c-23.835,6.968-64.381-1.561-75.356,4.038c-7.248,3.698-17.296,26.695-18.751,42.727
				c-0.509,5.607-0.075,10.911,1.206,15.807c1.281,4.898,1.823,8.392,1.641,10.481c-0.482,5.537-4.883,8.987-13.011,10.19
				c-11.615,1.719-23.842,1.019-35.517,0.253c-9.848-0.646-21.737-0.995-30.421-5.603c-4.706-2.498-7.039-7.274-6.666-13.52
				c0.844-14.136,7.013-26.524,14.13-38.114c8.736-14.227,20.787-27.255,33.586-38.586c14.302-12.662,29.651-24.295,45.33-34.739
				c15.408-10.262,31.789-19.89,48.727-27.822c20.977-9.823,47.744-24.762,71.232-22.424c5.379,0.535,8.087,2.409,7.734,5.111
				c-0.353,2.705-3.454,5.425-9.214,8.019c-15.598,7.025-30.47,16.349-44.268,26.091c-16.406,11.583-31.696,24.897-46.15,39.315
				C4613.926,1947.666,4614.449,1947.717,4615.494,1947.819z M4708.287,2073.347c-22.206-3.28-59.743-11.752-55.424-42.019
				c3.818-26.765,24.075-52.955,38.718-75.109c15.306-23.156,36.531-49.905,40.835-77.686c1.294-8.353-1.897-15.235-9.168-19.722
				c-9.731-6.004-21.836-8.46-33.134-9.655c-15.09-1.596-30.281-2.294-45.367-1.925c-9.77,0.239-20.004,0.917-29.646,0.227
				c-4.237-0.303-6.794-2.932-6.052-5.298c2.398-7.644,20.081-11.368,28.982-13.483c39.43-9.37,79.485-10.844,118.906-5.161
				c24.894,3.588,52.54,9.483,72.943,26.184c15.371,12.583,20.072,32.088,16.458,51.082c-3.112,16.357-9.823,31.785-16.891,46.606
				c-8.181,17.154-17.12,34.505-25.661,51.517c-5.34,10.637-11.63,21.907-13.839,33.562c-1.166,6.153-0.413,10.942,1.934,13.877
				c2.946,3.686,9.404,6.366,19.349,8.115c6.109,1.074,9.448,2.266,10.02,3.539c0.572,1.275,0.745,2.532,0.52,3.77
				c-0.863,4.746-4.077,8.17-9.605,10.266C4780.103,2084.189,4740.526,2078.109,4708.287,2073.347z"/>
			<path fill="#FFFFFF" d="M4931.305,1941.752c28.545,5.54,56.998,11.46,85.383,17.765c3.236,0.794,5.468,2.185,6.688,4.163
				c1.22,1.976,1.582,3.959,1.084,5.943s-1.791,5.285-3.864,9.9c-2.074,4.617-3.948,10.284-3.948,10.284
				c2.336,1.79,67.214-16.682,99.336-7.408c18.549,5.355,37.587,14.052,50.054,30.459c10.264,13.508,11.969,30.851,6.864,46.696
				c-11.123,34.523-73.133,69.151-73.133,69.151c0.054,1.044,59.241,12.555,88.863,8.832c7.424-0.933,12.702-0.909,15.74,0.115
				c3.97,1.338,5.327,3.854,4.074,7.525c-0.882,2.582-3.977,4.541-9.141,5.709c-27.559,6.235-56.646,4.934-84.631,1.979
				c-34.526-3.646-69.409-11.88-102.778-19.648c-4.378-1.019-7.891-1.67-10.048-2.271c-12.474-3.472-24.375-8.22-35.958-14.121
				c-10.213-5.203-26.433-21.155-27.81-21.055c-5.477,0.396-22.767,46.594-29.019,71.986c-0.331,1.796-0.497,2.693-0.828,4.489
				c-1.149,5.115-7.263,6.419-18.354,4.023c-26.715-5.056-53.48-9.75-80.322-14.087c-2.757-0.504-4.803-1.648-6.142-3.432
				c-1.338-1.783-1.86-3.633-1.506-5.464c6.686-34.634,32.506-67.82,52.172-96.454c19.452-28.322,46.603-60.505,54.62-94.897
				c0.762-5.175,1.143-7.762,1.902-12.937c0.787-3.798,2.519-6.36,5.211-7.679
				C4918.502,1940.001,4923.671,1940.13,4931.305,1941.752z M5050.938,2006.03c-27.04-7.134-51.541,10.222-68.417,29.534
				c-7.602,8.698-15.445,18.923-18.29,30.256c-2.066,8.23-1.712,14.518,0.796,18.452c2.508,3.935,8.569,7.112,18.045,9.369
				c11.165,2.659,23.168,0.302,33.783-3.585c12.731-4.662,25.217-11.923,34.439-21.427c7.949-8.192,15.405-16.685,18.71-28.095
				c2.604-8.992,1.977-16.669-1.659-22.54C5064.708,2012.123,5058.883,2008.126,5050.938,2006.03z"/>
			<path fill="#FFFFFF" d="M5278.812,2039.516c27.782,9.262,55.42,18.898,82.939,28.915c3.129,1.217,5.179,2.894,6.145,5.019
				c0.965,2.123,1.073,4.139,0.321,6.042c-0.751,1.903-2.464,5.008-5.125,9.312c-2.663,4.307-5.259,9.683-5.259,9.683
				c2.114,2.116,69.321-7.589,100.161,5.89c17.842,7.798,35.746,18.978,46.126,36.965c8.502,14.733,8.048,32.198,0.897,47.299
				c-15.575,32.89-81.929,58.826-81.929,58.826c-0.085,1.039,57.579,20.439,87.7,20.756c7.543,0.079,12.817,0.819,15.725,2.249
				c3.799,1.868,4.836,4.552,3.114,8.028c-1.211,2.445-4.557,3.971-9.87,4.431c-28.387,2.456-57.281-2.771-84.862-9.47
				c-34.03-8.265-67.816-21.097-100.168-33.261c-4.242-1.595-7.666-2.708-9.744-3.591c-12.005-5.103-23.284-11.396-34.093-18.789
				c-9.521-6.511-23.645-24.495-25.061-24.576c-5.53-0.317-28.69,43.223-38.186,67.602c-0.561,1.738-0.841,2.607-1.401,4.345
				c-1.803,4.924-8.071,5.411-18.83,1.572c-25.994-8.541-52.09-16.714-78.312-24.527c-2.685-0.861-4.578-2.264-5.684-4.209
				c-1.105-1.945-1.389-3.848-0.801-5.618c11.114-33.495,41.137-63.053,64.404-88.861c23.01-25.523,54.241-53.904,66.654-86.983
				c1.424-5.034,2.135-7.551,3.557-12.586c1.271-3.665,3.329-5.98,6.183-6.934
				C5266.264,2036.093,5271.404,2036.901,5278.812,2039.516z M5389.996,2119.151c-25.997-10.645-52.683,3.217-72.094,20.225
				c-8.694,7.617-17.838,16.729-22.134,27.605c-3.117,7.893-3.568,14.181-1.569,18.418c1.999,4.237,7.641,8.192,16.814,11.69
				c10.795,4.117,23.076,3.378,34.19,0.93c13.29-2.928,26.691-8.464,37.137-16.681c8.979-7.064,17.515-14.494,22.283-25.393
				c3.752-8.578,4.108-16.284,1.227-22.597C5402.969,2127.033,5397.662,2122.29,5389.996,2119.151z"/>
			<path fill="#FFFFFF" d="M5778.159,2268.405c25.279,16.479,50.31,33.301,75.115,50.484c2.883,1.855,4.604,3.937,5.159,6.233
				c0.555,2.295,0.302,4.348-0.793,5.955c-7.112,10.431-19.238,17.521-29.773,24.323c-15.211,9.823-31.171,19.529-46.332,29.45
				c-9.274,6.07-20.828,12.427-27.005,21.51c-2.86,4.205-3.765,7.883-2.898,10.156c0.866,2.272,3.665,5.023,8.284,7.811
				c8.58,5.178,19.316,7.87,29.028,10.633c10.036,2.856,20.276,6.028,30.523,7.888c5.587,1.014,9.623,2.254,11.936,3.806
				c4.099,2.75,5.176,6.471,3.069,8.704c-10.854,11.503-48.214-1.691-63.903-5.573c-15.086-3.734-29.928-9.202-44.081-15.096
				c-16.401-6.831-32.527-15.112-48.107-24.057c-16.914-9.71-33.809-47.337-35.124-48.604c-3.799-3.66-55.297-3.116-79.951-15.515
				c-17.169-8.635-33.213-21.363-43.921-37.789c-10.663-16.355-10.377-36.165-1.939-53.36c10.536-21.469,28.229-35.7,49.093-45.323
				c26.297-12.128,56.074-11.974,84.021-5.905c17.746,3.854,35.25,11.329,50.871,20.062c20.506,11.464,50.172,49.464,51.354,49.648
				c0.103,0.016,0.993-1.301,1.685-2.478c1.303-2.373,1.956-3.559,3.258-5.932
				C5760.387,2260.913,5767.215,2261.863,5778.159,2268.405z M5625.314,2334.415c24.255,13.338,52.276,3.013,73.872-10.407
				c9.821-6.103,20.485-13.516,26.521-23.536c4.374-7.26,5.785-13.451,4.338-18.05c-1.447-4.599-6.722-9.615-15.761-14.702
				c-10.526-5.925-23.271-7.193-35.152-6.321c-13.801,1.013-28.11,4.845-39.537,11.996c-9.7,6.07-18.917,12.6-24.698,23.075
				c-4.529,8.205-5.618,15.818-3.461,22.342C5613.592,2325.335,5618.223,2330.516,5625.314,2334.415z"/>
			<path fill="#FFFFFF" d="M5934.032,2374.992c26.149,17.554,52.017,35.491,77.626,53.823c2.775,2.073,4.368,4.288,4.777,6.629
				c0.409,2.339,0.202,4.058-0.615,5.147c-0.819,1.092-2.546,2.615-5.173,4.574c-2.628,1.959-5.864,4.288-9.693,6.985
				c-3.832,2.699-7.346,5.209-7.346,5.209c0.187,0.481,31.611-0.355,46.414,2.862c13.683,2.974,28.15,7.532,39.383,16.65
				c7.863,6.382,29.193,22.974,21.53,33.832c-5.9,8.36-17.173,13.062-27.215,17.396c-8.889,3.837-19.841,7.508-29.474,6.455
				c-3.188-0.349-6.551-2.011-9.776-4.572s-5.583-5.754-7.055-9.586c-6.538-17.018-17.866-31.91-32.415-42.89
				c-5.747-4.337-13.27-10.436-15.831-10.312c-10.854,0.528-37.331,23.805-56.031,35.584c-13.772,8.675-27.626,17.425-41.141,26.413
				c-4.376,2.91-8.678,2.858-12.844-0.119c-15.811-11.3-32.338-21.619-49.075-31.288c-10.211-5.899-21.001-11.519-30.824-17.763
				c-2.519-1.602-4.112-3.564-4.734-5.668c-0.623-2.105-0.404-3.969,0.659-5.593c1.062-1.623,7.108-6.067,18.223-13.244
				c12.029-7.769,24.336-15.245,36.458-22.702c13.991-8.607,27.877-18.004,40.683-27.964c10.892-8.471,21.814-17.661,29.988-29.25
				c1.284-2.02,1.926-3.029,3.209-5.049C5916.698,2366.22,5923.481,2367.658,5934.032,2374.992z"/>
			<path fill="#FFFFFF" d="M6261.389,2806.642c3.202,3.312,3.572,6.162,1.122,8.527c-2.453,2.367-6.879,2.295-13.271-0.16
				c-6.395-2.456-13.986-5.785-22.705-9.962c-11.799-5.652-23.336-11.98-34.813-18.259c-36.349-19.885-69.598-45.415-100.086-72.861
				c-32.099-28.896-94.748-86.876-56.359-134.26c14.285-17.632,34.05-25.603,55.355-27.931c25.661-2.805,53.343,4.667,76.984,15.697
				c29.44,13.736,56.221,32.332,79.755,54.312c18.23,17.026,38.003,37.34,46.464,61.85c4.853,14.059,4.057,30.272-6.946,41.245
				c-11.042,11.011-27.125,13.26-41.85,9.819c-20.759-4.85-39.798-15.094-57.56-26.306c-23.818-15.035-63.287-50.957-69.106-50.054
				c-5.55,0.862,0.454,37.846,11.72,51.44c4.398,5.307,9.38,10.562,14.95,15.738c32.507,30.21,72.156,53.562,109.699,76.342
				C6257.86,2803.713,6260.106,2805.316,6261.389,2806.642z M6129.972,2645.46c0.486,3.623,35.753,17.383,55.715,19.244
				c14.812,1.381,29.991-2.672,40.346-13.81c2.636-2.835,3.58-6.205,2.786-10.102c-0.794-3.898-3.59-8.084-8.394-12.523
				c-4.805-4.44-11.308-7.422-19.482-8.908c-8.172-1.485-16.458-1.12-24.755,0.938
				C6158.974,2624.569,6129.78,2644.024,6129.972,2645.46z"/>
			<path fill="#FFFFFF" d="M6449.674,2734.129c23.947,25.42,47.475,51.201,70.611,77.361c2.413,2.833,3.602,5.494,3.564,7.963
				s-0.835,4.478-2.339,5.636c-24.675,18.991-67.833,23.479-98.553,31.46c-29.869,7.76-71.746,13.384-95.203,32.321
				c-2.864,2.312-4.393,5.273-4.52,8.043c-0.126,2.771,1.474,6.061,4.805,9.786c16.635,18.603,40.029,31.68,61.15,44.48
				c3.016,1.827,5.54,3.924,7.515,6.297c3.518,4.226,3.977,7.421,1.392,9.56c-2.181,1.804-6.192,1.554-12.028-0.705
				c-5.839-2.26-13.247-5.878-22.206-10.8c-10.707-5.882-21.226-12.157-31.643-18.543c-13.437-8.236-26.169-17.576-38.516-27.199
				c-14.001-10.913-27.108-23.35-39.307-36.336c-10.186-10.844-19.946-22.997-26.292-36.41c-4.394-9.286-3.482-21.006,4.227-27.558
				c22.02-18.716,61.197-26.11,89.373-35.404c20.736-6.84,41.56-14.229,61.551-22.453c14.582-5.998,30.365-12.312,42.461-23.071
				c1.692-1.691,2.538-2.536,4.229-4.227C6433.782,2720.759,6440.386,2723.982,6449.674,2734.129z"/>
		</g>
	</g>
</g>
</svg>
