<?xml version="1.0" encoding="utf-8"?>
<!-- Generator: Adobe Illustrator 17.1.0, SVG Export Plug-In . SVG Version: 6.00 Build 0)  -->
<!DOCTYPE svg PUBLIC "-//W3C//DTD SVG 1.1//EN" "http://www.w3.org/Graphics/SVG/1.1/DTD/svg11.dtd">
<svg version="1.1" id="Layer_1" xmlns="http://www.w3.org/2000/svg" xmlns:xlink="http://www.w3.org/1999/xlink" x="0px" y="0px"
	 viewBox="0 0 258.727 279.425" enable-background="new 0 0 258.727 279.425" xml:space="preserve">
<g>
	<ellipse fill="#A5925E" cx="129.363" cy="139.713" rx="129.363" ry="139.713"/>
	<path fill="#FFFFFF" d="M197.141,147.156v60.537c0,2.02-1.452,3.661-3.283,3.661H58.517c-1.831,0-3.282-1.641-3.282-3.661v-60.537
		c0-2.02,1.452-3.598,3.282-3.598h37.307c1.199,16.854,15.213,30.111,32.383,30.111c17.17,0,31.184-13.256,32.383-30.111h33.267
		C195.689,143.557,197.141,145.136,197.141,147.156z"/>
	<path fill="#FFFFFF" d="M197.141,84.156v41.474c0,7.26-5.303,13.13-11.868,13.13h-24.682
		c-1.199-16.854-15.213-30.111-32.383-30.111c-17.17,0-31.184,13.257-32.383,30.111H67.102c-6.565,0-11.867-5.871-11.867-13.13
		V84.156c0-7.259,5.302-13.193,11.867-13.193h118.171C191.838,70.963,197.141,76.897,197.141,84.156z"/>
	<path fill="none" d="M160.717,141.159c0,0.821,0,1.641-0.126,2.399c-1.199,16.854-15.213,30.111-32.383,30.111
		c-17.17,0-31.184-13.256-32.383-30.111c-0.126-0.757-0.126-1.578-0.126-2.399s0-1.641,0.126-2.399
		c1.199-16.854,15.213-30.111,32.383-30.111c17.17,0,31.184,13.257,32.383,30.111C160.717,139.517,160.717,140.338,160.717,141.159z
		"/>
	<ellipse fill="#A5925E" cx="171.871" cy="93.603" rx="11.154" ry="11.258"/>
</g>
</svg>
