<?xml version="1.0" encoding="utf-8"?>
<!-- Generator: Adobe Illustrator 17.1.0, SVG Export Plug-In . SVG Version: 6.00 Build 0)  -->
<!DOCTYPE svg PUBLIC "-//W3C//DTD SVG 1.1//EN" "http://www.w3.org/Graphics/SVG/1.1/DTD/svg11.dtd">
<svg version="1.1" id="Layer_1" xmlns="http://www.w3.org/2000/svg" xmlns:xlink="http://www.w3.org/1999/xlink" x="0px" y="0px"
	 viewBox="0 0 339.92 367.114" enable-background="new 0 0 339.92 367.114" xml:space="preserve">
<ellipse fill="#A5925E" cx="169.96" cy="183.557" rx="169.96" ry="183.557"/>
<g>
	<path fill="#FFFFFF" d="M258.759,190.893v74.057c0,2.471-1.776,4.479-4.016,4.479H89.177c-2.239,0-4.015-2.008-4.015-4.479v-74.057
		c0-2.471,1.776-4.402,4.015-4.402h45.639c1.467,20.618,18.611,36.835,39.615,36.835c21.004,0,38.148-16.217,39.615-36.835h40.697
		C256.983,186.491,258.759,188.422,258.759,190.893z"/>
	<path fill="#FFFFFF" d="M258.759,113.824v50.736c0,8.881-6.487,16.063-14.518,16.063h-30.194
		c-1.467-20.618-18.611-36.836-39.615-36.836c-21.005,0-38.148,16.217-39.615,36.836H99.679c-8.031,0-14.517-7.182-14.517-16.063
		v-50.736c0-8.88,6.486-16.139,14.517-16.139h144.562C252.272,97.685,258.759,104.944,258.759,113.824z"/>
	<path fill="none" d="M214.201,183.557c0,1.004,0,2.008-0.155,2.935c-1.467,20.618-18.611,36.835-39.615,36.835
		c-21.005,0-38.148-16.217-39.615-36.835c-0.155-0.927-0.155-1.931-0.155-2.935s0-2.008,0.155-2.935
		c1.467-20.618,18.611-36.836,39.615-36.836c21.004,0,38.148,16.217,39.615,36.836C214.201,181.549,214.201,182.553,214.201,183.557
		z"/>
	<ellipse fill="#A5925E" cx="227.845" cy="125.381" rx="13.644" ry="13.773"/>
</g>
</svg>
