<?xml version="1.0" encoding="utf-8"?>
<!-- Generator: Adobe Illustrator 17.1.0, SVG Export Plug-In . SVG Version: 6.00 Build 0)  -->
<!DOCTYPE svg PUBLIC "-//W3C//DTD SVG 1.1//EN" "http://www.w3.org/Graphics/SVG/1.1/DTD/svg11.dtd">
<svg version="1.1" id="Layer_1" xmlns="http://www.w3.org/2000/svg" xmlns:xlink="http://www.w3.org/1999/xlink" x="0px" y="0px"
	 viewBox="0 0 371 382" enable-background="new 0 0 371 382" xml:space="preserve">
<ellipse opacity="0.5" fill="#FFFFFF" cx="184.858" cy="183.237" rx="144.518" ry="148.803"/>
<g>
	<g>
		<defs>
			<rect id="SVGID_1_" x="44" y="37" width="280.349" height="291"/>
		</defs>
		<clipPath id="SVGID_2_">
			<use xlink:href="#SVGID_1_"  overflow="visible"/>
		</clipPath>
		<g clip-path="url(#SVGID_2_)">
			<defs>
				<rect id="SVGID_3_" x="44" y="37" width="280.349" height="291"/>
			</defs>
			<clipPath id="SVGID_4_">
				<use xlink:href="#SVGID_3_"  overflow="visible"/>
			</clipPath>
			<path clip-path="url(#SVGID_4_)" fill="#344569" d="M276.312,183.51c0,52.588-41.721,95.219-93.188,95.219
				c-51.465,0-93.187-42.631-93.187-95.219s41.721-95.219,93.187-95.219C234.591,88.291,276.312,130.922,276.312,183.51"/>
			<path clip-path="url(#SVGID_4_)" fill="#FFFFFF" d="M254.103,182.51c0,39.924-32.231,72.289-71.989,72.289
				s-71.989-32.365-71.989-72.289s32.231-72.289,71.989-72.289S254.103,142.586,254.103,182.51"/>
			
				<ellipse clip-path="url(#SVGID_4_)" fill="none" stroke="#344569" stroke-width="0.206" stroke-miterlimit="10" cx="182.114" cy="182.51" rx="71.989" ry="72.289"/>
			<path clip-path="url(#SVGID_4_)" fill="#344569" d="M190.609,77.177v9.183c0,2.061-1.672,3.733-3.733,3.733h-8.254
				c-2.062,0-3.734-1.672-3.734-3.733v-9.183c0-2.061,1.672-3.733,3.734-3.733h0.119c-0.047-1.968-0.096-3.936-0.141-5.904
				c-0.054-2.211-0.109-4.423-0.404-6.616c-0.575-4.256-2.058-8.39-2.162-12.685c-0.103-4.294,1.631-9.071,5.572-10.78
				c0.718-0.313,1.501-0.51,2.282-0.448c1.15,0.09,2.195,0.739,3.002,1.563c1.981,2.02,2.67,5.016,2.569,7.842
				c-0.101,2.826-0.897,5.574-1.496,8.338c-1.327,6.123-1.711,12.453-1.127,18.689h0.041
				C188.937,73.444,190.609,75.116,190.609,77.177"/>
			<path clip-path="url(#SVGID_4_)" fill="#344569" d="M259.488,114.426l-6.952,6.002c-1.56,1.346-3.918,1.175-5.264-0.386
				l-5.395-6.246c-1.348-1.562-1.176-3.92,0.385-5.267l6.95-6.002c1.56-1.348,3.918-1.175,5.267,0.388l0.078,0.089
				c1.459-1.321,2.916-2.645,4.376-3.966c1.637-1.486,3.277-2.973,4.742-4.63c2.847-3.216,5.006-7.041,8.188-9.926
				c3.184-2.884,7.931-4.693,11.802-2.828c0.706,0.341,1.367,0.804,1.831,1.436c0.682,0.928,0.875,2.144,0.778,3.294
				c-0.234,2.818-2.052,5.298-4.258,7.068c-2.204,1.771-4.804,2.965-7.289,4.317c-5.502,2.998-10.544,6.843-14.881,11.362
				l0.027,0.032C261.22,110.722,261.047,113.08,259.488,114.426"/>
			<path clip-path="url(#SVGID_4_)" fill="#344569" d="M284.163,189.346l-9.183-0.012c-2.061-0.003-3.732-1.677-3.728-3.738
				l0.01-8.254c0.003-2.062,1.676-3.733,3.737-3.73l9.184,0.013c2.061,0.003,3.73,1.676,3.728,3.739v0.119
				c1.968-0.044,3.936-0.09,5.904-0.134c2.211-0.05,4.424-0.102,6.617-0.395c4.256-0.569,8.392-2.048,12.687-2.145
				c4.294-0.097,9.068,1.642,10.772,5.586c0.311,0.72,0.509,1.503,0.446,2.283c-0.092,1.149-0.742,2.194-1.567,2.999
				c-2.022,1.978-5.02,2.662-7.846,2.558c-2.825-0.105-5.573-0.904-8.335-1.508c-6.122-1.335-12.451-1.726-18.688-1.15v0.041
				C287.899,187.679,286.224,189.349,284.163,189.346"/>
			<path clip-path="url(#SVGID_4_)" fill="#344569" d="M251.058,261.377l-6.378-6.608c-1.432-1.482-1.389-3.847,0.093-5.278
				l5.939-5.732c1.485-1.433,3.849-1.39,5.28,0.092l6.378,6.608c1.432,1.482,1.39,3.847-0.094,5.28l-0.085,0.083
				c1.399,1.384,2.801,2.765,4.202,4.149c1.574,1.553,3.15,3.108,4.886,4.48c3.369,2.663,7.308,4.606,10.364,7.625
				c3.057,3.018,5.126,7.658,3.478,11.626c-0.301,0.724-0.726,1.41-1.331,1.908c-0.889,0.733-2.093,0.991-3.246,0.959
				c-2.827-0.078-5.404-1.756-7.294-3.858c-1.889-2.104-3.226-4.634-4.714-7.039c-3.297-5.327-7.418-10.147-12.169-14.229
				l-0.03,0.028C254.853,262.901,252.489,262.86,251.058,261.377"/>
			<path clip-path="url(#SVGID_4_)" fill="#344569" d="M190.986,287.823v-9.183c0-2.061-1.672-3.733-3.733-3.733h-8.254
				c-2.062,0-3.734,1.672-3.734,3.733v9.183c0,2.061,1.672,3.733,3.734,3.733h0.119c-0.047,1.968-0.096,3.936-0.141,5.904
				c-0.054,2.211-0.109,4.423-0.404,6.616c-0.575,4.256-2.058,8.39-2.162,12.685c-0.103,4.294,1.631,9.071,5.572,10.78
				c0.718,0.313,1.501,0.51,2.283,0.448c1.149-0.09,2.194-0.739,3-1.563c1.981-2.02,2.67-5.016,2.569-7.842
				s-0.897-5.574-1.496-8.338c-1.327-6.123-1.711-12.453-1.127-18.689h0.041C189.314,291.556,190.986,289.884,190.986,287.823"/>
			<path clip-path="url(#SVGID_4_)" fill="#344569" d="M108.862,112.173l6.952,6.002c1.56,1.346,3.918,1.175,5.264-0.386
				l5.395-6.246c1.348-1.562,1.176-3.92-0.385-5.267l-6.95-6.002c-1.56-1.348-3.918-1.175-5.267,0.388l-0.078,0.089
				c-1.459-1.321-2.916-2.645-4.376-3.966c-1.637-1.486-3.277-2.973-4.742-4.63c-2.847-3.216-5.006-7.041-8.189-9.926
				c-3.182-2.884-7.93-4.693-11.801-2.828c-0.705,0.341-1.367,0.804-1.831,1.436c-0.682,0.928-0.875,2.144-0.778,3.294
				c0.234,2.818,2.052,5.298,4.258,7.068c2.204,1.771,4.804,2.965,7.289,4.317c5.502,2.998,10.544,6.843,14.881,11.362l-0.027,0.032
				C107.129,108.468,107.302,110.826,108.862,112.173"/>
			<path clip-path="url(#SVGID_4_)" fill="#344569" d="M84.186,187.092l9.183-0.012c2.061-0.003,3.732-1.677,3.728-3.738
				l-0.01-8.254c-0.003-2.062-1.676-3.733-3.737-3.73l-9.184,0.013c-2.061,0.003-3.73,1.676-3.728,3.739v0.119
				c-1.968-0.044-3.936-0.09-5.904-0.134c-2.211-0.05-4.424-0.102-6.617-0.395c-4.256-0.569-8.392-2.048-12.687-2.145
				c-4.294-0.097-9.068,1.642-10.772,5.586c-0.311,0.72-0.509,1.503-0.446,2.283c0.092,1.149,0.742,2.194,1.567,2.999
				c2.022,1.978,5.02,2.662,7.844,2.558c2.826-0.105,5.574-0.904,8.337-1.508c6.122-1.335,12.451-1.726,18.688-1.15v0.041
				C80.451,185.426,82.125,187.095,84.186,187.092"/>
			<path clip-path="url(#SVGID_4_)" fill="#344569" d="M117.292,259.123l6.378-6.608c1.432-1.482,1.389-3.847-0.093-5.278
				l-5.939-5.732c-1.485-1.433-3.849-1.39-5.28,0.092l-6.378,6.608c-1.432,1.482-1.39,3.847,0.094,5.28l0.085,0.083
				c-1.399,1.384-2.801,2.765-4.202,4.149c-1.574,1.553-3.15,3.108-4.886,4.48c-3.369,2.663-7.308,4.606-10.364,7.625
				c-3.057,3.018-5.126,7.658-3.478,11.626c0.301,0.724,0.726,1.41,1.331,1.908c0.889,0.733,2.093,0.991,3.246,0.959
				c2.827-0.078,5.404-1.756,7.294-3.858c1.889-2.104,3.226-4.634,4.714-7.039c3.297-5.327,7.418-10.147,12.169-14.229l0.03,0.028
				C113.497,260.648,115.86,260.607,117.292,259.123"/>
			<path clip-path="url(#SVGID_4_)" fill="#344569" d="M218.251,222.328c5.211,0,9.427-5.698,9.427-12.74H141.3v15.288"/>
			
				<line clip-path="url(#SVGID_4_)" fill="none" stroke="#344569" stroke-width="1.595" stroke-miterlimit="10" x1="177.992" y1="209.588" x2="177.992" y2="130.854"/>
			<path clip-path="url(#SVGID_4_)" fill="#344569" d="M160.76,160.704l-10.859,8.244l-7.394-8.244l14.786-16.487l6.934,0.227
				v-0.109c0,0.125,12.314,17.966,27.531,0.227l6.934-0.227l14.786,16.487l-7.392,8.244l-10.86-8.244v42.184H160.76v-42.184"/>
			<polyline clip-path="url(#SVGID_4_)" fill="#344569" points="177.992,140.758 160.165,140.758 177.992,130.854 			"/>
			<path clip-path="url(#SVGID_4_)" fill="none" stroke="#344569" stroke-width="1.396" stroke-miterlimit="10" d="M111.632,200.226
				c1.942,0.018,3.91,0.035,5.791-0.447c1.881-0.481,3.699-1.523,4.699-3.188c0.359,1.941,2.215,3.323,4.143,3.745
				c1.928,0.421,3.931,0.076,5.873-0.269"/>
			<path clip-path="url(#SVGID_4_)" fill="none" stroke="#344569" stroke-width="1.396" stroke-miterlimit="10" d="M151.942,234.586
				c1.942,0.018,3.91,0.035,5.791-0.447c1.881-0.481,3.699-1.523,4.699-3.188c0.359,1.941,2.215,3.323,4.143,3.745
				c1.928,0.421,3.931,0.076,5.873-0.269"/>
			<path clip-path="url(#SVGID_4_)" fill="none" stroke="#344569" stroke-width="1.396" stroke-miterlimit="10" d="M177.992,234.586
				c1.942,0.018,3.91,0.035,5.791-0.447c1.881-0.481,3.699-1.523,4.699-3.188c0.359,1.941,2.215,3.323,4.143,3.745
				c1.928,0.421,3.931,0.076,5.873-0.269"/>
			<path clip-path="url(#SVGID_4_)" fill="none" stroke="#344569" stroke-width="1.396" stroke-miterlimit="10" d="M203.427,234.586
				c1.942,0.018,3.91,0.035,5.791-0.447c1.881-0.481,3.699-1.523,4.699-3.188c0.359,1.941,2.215,3.323,4.143,3.745
				c1.928,0.421,3.929,0.076,5.873-0.269"/>
			<path clip-path="url(#SVGID_4_)" fill="none" stroke="#344569" stroke-width="1.396" stroke-miterlimit="10" d="M163.984,244.376
				c1.942,0.018,3.91,0.035,5.791-0.447c1.881-0.481,3.699-1.523,4.699-3.188c0.359,1.941,2.215,3.323,4.143,3.745
				s3.931,0.076,5.873-0.269"/>
			<path clip-path="url(#SVGID_4_)" fill="none" stroke="#344569" stroke-width="1.396" stroke-miterlimit="10" d="M189.652,244.376
				c1.942,0.018,3.91,0.035,5.791-0.447c1.881-0.481,3.699-1.523,4.699-3.188c0.359,1.941,2.215,3.323,4.143,3.745
				s3.929,0.076,5.873-0.269"/>
			<path clip-path="url(#SVGID_4_)" fill="none" stroke="#344569" stroke-width="1.396" stroke-miterlimit="10" d="M217.426,224.572
				c1.942,0.018,3.91,0.035,5.791-0.447c1.881-0.481,3.699-1.523,4.699-3.188c0.359,1.941,2.215,3.323,4.143,3.745
				s3.929,0.076,5.873-0.269"/>
			<path clip-path="url(#SVGID_4_)" fill="none" stroke="#344569" stroke-width="1.396" stroke-miterlimit="10" d="M189.652,224.572
				c1.942,0.018,3.91,0.035,5.791-0.447c1.881-0.481,3.699-1.523,4.699-3.188c0.359,1.941,2.215,3.323,4.143,3.745
				s3.931,0.076,5.873-0.269"/>
			<path clip-path="url(#SVGID_4_)" fill="none" stroke="#344569" stroke-width="1.396" stroke-miterlimit="10" d="M162.195,224.572
				c1.942,0.018,3.91,0.035,5.791-0.447c1.881-0.481,3.699-1.523,4.699-3.188c0.359,1.941,2.215,3.323,4.143,3.745
				s3.929,0.076,5.873-0.269"/>
			<path clip-path="url(#SVGID_4_)" fill="none" stroke="#344569" stroke-width="1.396" stroke-miterlimit="10" d="M136.749,224.572
				c1.942,0.018,3.91,0.035,5.791-0.447c1.881-0.481,3.699-1.523,4.699-3.188c0.359,1.941,2.215,3.323,4.143,3.745
				s3.931,0.076,5.873-0.269"/>
			<path clip-path="url(#SVGID_4_)" fill="none" stroke="#344569" stroke-width="1.396" stroke-miterlimit="10" d="M124.717,211.253
				c1.942,0.018,3.91,0.035,5.791-0.447c1.881-0.481,3.699-1.523,4.699-3.188c0.359,1.941,2.215,3.323,4.143,3.745
				s3.929,0.076,5.873-0.269"/>
			<path clip-path="url(#SVGID_4_)" fill="none" stroke="#344569" stroke-width="1.396" stroke-miterlimit="10" d="M237.932,200.226
				c1.942,0.018,3.91,0.035,5.791-0.447c1.881-0.481,3.699-1.523,4.699-3.188c0.359,1.941,2.215,3.323,4.143,3.745
				c1.928,0.421,3.929,0.076,5.873-0.269"/>
			<path clip-path="url(#SVGID_4_)" fill="none" stroke="#344569" stroke-width="1.396" stroke-miterlimit="10" d="M230.716,211.977
				c1.942,0.018,3.91,0.035,5.791-0.447c1.881-0.481,3.699-1.523,4.699-3.188c0.359,1.941,2.215,3.323,4.143,3.745
				c1.928,0.421,3.931,0.076,5.873-0.269"/>
			<path clip-path="url(#SVGID_4_)" fill="none" stroke="#344569" stroke-width="1.396" stroke-miterlimit="10" d="M128.499,234.586
				c1.942,0.018,3.91,0.035,5.791-0.447c1.881-0.481,3.699-1.523,4.699-3.188c0.359,1.941,2.215,3.323,4.143,3.745
				c1.928,0.421,3.931,0.076,5.873-0.269"/>
			<path clip-path="url(#SVGID_4_)" fill="none" stroke="#344569" stroke-width="1.396" stroke-miterlimit="10" d="M114.464,221.849
				c1.942,0.018,3.91,0.035,5.791-0.447c1.881-0.481,3.699-1.523,4.699-3.188c0.359,1.941,2.215,3.323,4.143,3.745
				c1.928,0.421,3.931,0.076,5.873-0.269"/>
			<path clip-path="url(#SVGID_4_)" fill="#FFFFFF" d="M115.162,127.17c-0.173,0.273-0.258,0.41-0.429,0.684
				c-0.065,0.076-0.12,0.127-0.167,0.151c-0.048,0.025-0.096,0.017-0.145-0.025c-0.118-0.1-0.137-0.392-0.053-0.876
				s0.289-1.075,0.622-1.765c0.332-0.691,0.702-1.252,1.103-1.684c0.401-0.432,0.746-0.684,1.027-0.761
				c0.283-0.076,0.58,0.037,0.894,0.341c0.059,0.068,0.089,0.102,0.149,0.172c0.246-1,0.549-1.83,0.899-2.486
				c0.35-0.656,0.777-1.22,1.271-1.686c0.494-0.465,0.952-0.74,1.364-0.828c0.413-0.089,0.755,0.021,1.023,0.32
				c0.275,0.308,0.523,0.97,0.768,1.981c0.099,0.417,0.199,0.832,0.3,1.242c0.245,0.996,0.474,1.591,0.66,1.788
				c0.331,0.351,0.743,0.353,1.233,0.013c0.264-0.183,0.432-0.273,0.503-0.267c0.072,0.005,0.124,0.027,0.158,0.063
				c0.16,0.177,0.065,0.544-0.278,1.105c-0.342,0.562-0.793,1.114-1.353,1.662c-1.102,1.08-1.906,1.389-2.442,0.868
				c-0.376-0.364-0.716-1.007-1.001-1.937c-0.12-0.39-0.233-0.774-0.339-1.154c-0.252-0.912-0.485-1.49-0.715-1.722
				c-0.23-0.233-0.583-0.116-1.054,0.362c-0.274,0.278-0.715,0.854-0.696,1.162c0.025,0.403,0.689,1.611,1.145,2.994
				c0.416,1.257,0.81,2.038,1.158,2.354c0.102,0.084,0.154,0.125,0.257,0.209c0.078,0.071,0.09,0.178,0.039,0.324
				c-0.05,0.146-0.127,0.275-0.23,0.391c-0.662,0.756-0.988,1.14-1.632,1.92c-0.302,0.357-0.538,0.539-0.695,0.532
				c-0.076-0.003-0.169-0.05-0.271-0.134c-0.102-0.084-0.225-0.233-0.368-0.446c-0.143-0.213-0.37-0.7-0.667-1.47
				c-0.297-0.769-0.571-1.486-0.824-2.146c-0.253-0.662-0.451-1.06-0.602-1.19c-0.15-0.132-0.269-0.198-0.358-0.198
				C115.326,127.031,115.241,127.078,115.162,127.17"/>
			<path clip-path="url(#SVGID_4_)" fill="#FFFFFF" d="M130.553,114.106c0.969-0.658,1.459-0.977,2.443-1.598
				c0.09-0.062,0.174-0.087,0.248-0.075c0.075,0.013,0.13,0.045,0.167,0.098c0.137,0.203,0.248,0.598,0.342,1.182
				c0.093,0.585,0.187,1.164,0.284,1.737c0.096,0.574,0.195,0.928,0.292,1.067c0.097,0.138,0.185,0.209,0.264,0.212
				c0.078,0.003,0.19-0.047,0.335-0.149c0.146-0.101,0.371-0.344,0.68-0.725c0.309-0.382,0.516-0.647,0.615-0.802
				c0.1-0.154,0.186-0.256,0.261-0.305c0.132-0.085,0.23-0.08,0.293,0.019c0.136,0.208-0.203,0.806-0.964,1.815
				c-0.257,0.34-0.591,0.712-1.003,1.116c-0.411,0.403-0.852,0.779-1.324,1.129c-0.788,0.583-1.848,0.428-1.893,0.447
				c-0.142,0.061-0.68,1.527-1.503,2.204c-0.563,0.464-1.128,0.752-1.704,0.863c-0.628,0.12-1.168-0.072-1.619-0.587
				c-0.474-0.543-0.711-1.222-0.702-2.031c0.01-0.894,0.315-1.77,0.929-2.6c0.34-0.46,0.76-0.886,1.26-1.278
				c0.765-0.6,2.113-0.886,2.135-0.92c0.003-0.004-0.026-0.045-0.052-0.08c-0.053-0.068-0.08-0.102-0.134-0.171
				C130.104,114.541,130.22,114.35,130.553,114.106 M130.54,119.473c0.602-0.477,0.811-1.246,0.647-2.332
				c-0.075-0.499-0.193-0.859-0.357-1.08c-0.165-0.221-0.324-0.337-0.479-0.351c-0.155-0.013-0.368,0.083-0.64,0.289
				c-0.27,0.207-0.486,0.53-0.642,0.972c-0.156,0.439-0.208,0.884-0.158,1.33c0.05,0.444,0.174,0.784,0.364,1.021
				c0.19,0.236,0.397,0.362,0.62,0.377C130.118,119.713,130.332,119.638,130.54,119.473"/>
			<path clip-path="url(#SVGID_4_)" fill="#FFFFFF" d="M135.765,110.759c0.955-0.627,1.436-0.932,2.407-1.526
				c0.093-0.054,0.178-0.072,0.251-0.056c0.074,0.018,0.136,0.071,0.187,0.159c0.052,0.089,0.083,0.377,0.101,0.863
				c0.017,0.485,0.05,0.994,0.101,1.525c0.049,0.531,0.134,0.89,0.249,1.08c0.213,0.357,0.547,0.397,1.001,0.129
				c0.217-0.128,0.628-0.35,0.676-0.486c0.049-0.14-0.109-0.704-0.142-1.224c-0.084-1.305-0.196-2.275-0.393-2.861
				c-0.04-0.119,0.026-0.227,0.202-0.323c0.531-0.291,1.088-0.6,1.671-0.925c0.583-0.326,0.923-0.505,1.014-0.552
				c0.09-0.045,0.172-0.061,0.243-0.045c0.07,0.016,0.114,0.041,0.132,0.078c0.072,0.145,0.109,0.507,0.115,1.085
				c0.005,0.579,0.025,1.173,0.057,1.782c0.031,0.609,0.11,1.025,0.227,1.251c0.118,0.226,0.295,0.278,0.532,0.155
				c0.239-0.123,0.54-0.345,0.91-0.665s0.623-0.559,0.755-0.72c0.132-0.162,0.224-0.253,0.274-0.278
				c0.137-0.065,0.231-0.043,0.283,0.067c0.052,0.109,0.005,0.258-0.138,0.447c-0.145,0.19-0.326,0.401-0.543,0.633
				c-0.218,0.231-0.487,0.497-0.802,0.795c-0.726,0.685-1.522,1.264-2.393,1.743c-0.87,0.479-1.709,0.229-1.806,0.234
				c-0.11,0.004-0.485,0.558-0.656,0.748c-0.173,0.191-0.424,0.434-0.751,0.734c-0.327,0.3-0.643,0.547-0.951,0.742
				c-0.983,0.619-1.69,0.61-2.133-0.062c-0.152-0.233-0.286-0.55-0.394-0.955c-0.109-0.404-0.183-0.786-0.224-1.144
				c-0.109-0.947-0.212-1.513-0.323-1.688c-0.111-0.174-0.15-0.306-0.118-0.397C135.418,111.013,135.544,110.898,135.765,110.759"/>
			<path clip-path="url(#SVGID_4_)" fill="#FFFFFF" d="M149.506,103.775c0.578-0.309,0.868-0.461,1.452-0.758
				c0.286-0.111,0.463-0.074,0.532,0.109c0.07,0.182-0.022,0.346-0.273,0.495c-0.251,0.147-1.472,0.491-1.734,0.898
				c-0.089,0.137-0.05,0.792-0.098,1.386c-0.097,1.22-0.087,1.928,0,2.128c0.094,0.22,0.3,0.258,0.619,0.124
				c1.031-0.437,1.901-0.954,2.62-1.57c0.105-0.09,0.194-0.149,0.264-0.176c0.137-0.05,0.225-0.025,0.264,0.079
				c0.04,0.103-0.01,0.24-0.149,0.406c-0.424,0.509-1.134,1.072-2.118,1.717c-0.983,0.643-1.91,1.171-2.796,1.578
				c-0.503,0.233-0.916,0.346-1.246,0.339c-0.329-0.008-0.553-0.128-0.667-0.363c-0.116-0.239-0.15-0.774-0.085-1.607
				c0.074-0.934,0.056-2.35,0.017-2.371c-0.04-0.022-0.385,0.195-0.474,0.238c-0.22,0.102-0.364,0.083-0.433-0.063
				c-0.05-0.106-0.049-0.194,0.005-0.264c0.053-0.071,0.115-0.131,0.185-0.182c0.07-0.052,0.131-0.092,0.182-0.121
				c0.053-0.031,0.127-0.071,0.221-0.123c0.094-0.05,0.2-0.096,0.208-0.111c0.043-0.094-0.133-0.485-0.227-0.689
				c-0.034-0.068-0.052-0.102-0.085-0.171c-0.063-0.138,0.111-0.331,0.525-0.575c0.138-0.081,0.558-0.364,1.274-0.835
				c0.715-0.47,1.165-0.735,1.34-0.806c0.28-0.115,0.452-0.093,0.516,0.062C149.453,102.814,149.504,103.224,149.506,103.775"/>
			<path clip-path="url(#SVGID_4_)" fill="#FFFFFF" d="M156.388,105.792c0.252-0.084,0.578-0.248,0.981-0.49
				c0.402-0.242,0.691-0.432,0.866-0.574c0.174-0.143,0.301-0.226,0.381-0.249c0.158-0.048,0.257-0.003,0.297,0.132
				c0.018,0.062-0.019,0.15-0.112,0.26c-0.304,0.358-0.919,0.817-1.813,1.397c-0.893,0.58-1.709,1.01-2.467,1.284
				c-0.47,0.171-0.886,0.252-1.251,0.244c-0.366-0.009-0.6-0.142-0.702-0.406c-0.062-0.159-0.054-0.612,0.03-1.358
				c0.16-1.412,0.149-2.424-0.072-3.025c-0.028-0.071-0.043-0.107-0.072-0.178c-0.057-0.156,0.101-0.305,0.478-0.441
				c1.142-0.433,1.717-0.64,2.872-1.034c0.102-0.032,0.186-0.031,0.253,0.001c0.066,0.034,0.109,0.081,0.128,0.142
				c0.071,0.221,0.063,0.623-0.017,1.207c-0.08,0.584-0.158,1.159-0.234,1.725s-0.075,0.954-0.004,1.164
				C156.002,105.803,156.153,105.869,156.388,105.792 M156.103,99.324c0.107,0.342-0.037,0.713-0.426,1.118
				c-0.388,0.403-0.837,0.69-1.353,0.864c-0.517,0.174-0.946,0.23-1.292,0.162c-0.346-0.067-0.565-0.221-0.653-0.464
				c-0.088-0.244-0.057-0.504,0.096-0.783c0.151-0.278,0.386-0.536,0.707-0.774c0.319-0.238,0.693-0.428,1.116-0.566
				c0.423-0.14,0.811-0.167,1.16-0.081C155.807,98.886,156.021,99.062,156.103,99.324"/>
			<path clip-path="url(#SVGID_4_)" fill="#FFFFFF" d="M161.217,101.834c-0.072,0.443-0.066,0.835,0.022,1.169
				c0.088,0.333,0.193,0.572,0.317,0.716c0.123,0.143,0.275,0.239,0.456,0.286c0.612,0.156,1.681-0.101,3.237-0.708
				c0.739-0.288,1.277-0.51,1.609-0.68c0.332-0.168,0.53-0.256,0.592-0.267c0.134-0.025,0.212,0.019,0.233,0.131
				c0.021,0.112-0.059,0.247-0.242,0.398c-0.475,0.401-1.18,0.804-2.095,1.225c-0.916,0.421-1.958,0.775-3.131,1.075
				c-1.173,0.301-2.107,0.372-2.822,0.19c-0.713-0.183-1.172-0.587-1.367-1.221c-0.12-0.394-0.137-0.797-0.044-1.207
				c0.092-0.41,0.273-0.795,0.545-1.155c0.274-0.36,0.618-0.702,1.034-1.021c0.832-0.638,1.859-1.109,3.066-1.392
				c1.406-0.329,2.486-0.429,3.049-0.244c0.068,0.023,0.12,0.105,0.143,0.221s0,0.322-0.068,0.616
				c-0.068,0.295-0.178,0.576-0.329,0.848c-0.15,0.27-0.306,0.423-0.469,0.457c-0.165,0.035-0.311-0.01-0.442-0.137
				c-0.129-0.125-0.238-0.227-0.326-0.306c-0.088-0.08-0.205-0.169-0.351-0.27c-0.147-0.102-0.28-0.173-0.401-0.214
				c-0.12-0.041-0.26-0.07-0.421-0.084c-0.163-0.014-0.351,0.004-0.567,0.056c-0.214,0.052-0.417,0.158-0.606,0.317
				c-0.189,0.158-0.329,0.34-0.424,0.541C161.32,101.374,161.256,101.596,161.217,101.834"/>
			<path clip-path="url(#SVGID_4_)" fill="#FFFFFF" d="M173.703,97.499c1.122-0.076,1.682-0.105,2.804-0.146
				c0.106-0.008,0.187,0.013,0.243,0.061c0.057,0.048,0.088,0.105,0.093,0.168c0.017,0.244-0.079,0.641-0.28,1.193
				c-0.203,0.552-0.402,1.1-0.596,1.642c-0.194,0.543-0.28,0.899-0.266,1.067c0.016,0.169,0.054,0.274,0.119,0.315
				c0.065,0.043,0.181,0.056,0.351,0.043c0.169-0.014,0.474-0.111,0.915-0.284c0.442-0.174,0.743-0.301,0.901-0.384
				c0.156-0.084,0.279-0.128,0.364-0.133c0.152-0.008,0.231,0.047,0.238,0.164c0.013,0.248-0.559,0.596-1.68,1.084
				c-0.377,0.164-0.835,0.317-1.371,0.457c-0.536,0.141-1.084,0.242-1.645,0.304c-0.934,0.103-1.747-0.571-1.787-0.575
				c-0.141-0.018-1.29,0.965-2.29,1.125c-0.687,0.11-1.29,0.066-1.817-0.136c-0.575-0.218-0.93-0.66-1.06-1.332
				c-0.136-0.708-0.012-1.41,0.377-2.097c0.429-0.76,1.094-1.353,1.995-1.751c0.499-0.221,1.049-0.373,1.649-0.455
				c0.921-0.125,2.186,0.306,2.213,0.293c0.003-0.001,0-0.053-0.005-0.096c-0.012-0.085-0.018-0.129-0.031-0.214
				C173.12,97.647,173.307,97.541,173.703,97.499 M171.138,102.108c0.726-0.102,1.265-0.658,1.645-1.676
				c0.176-0.466,0.251-0.836,0.218-1.11c-0.032-0.273-0.109-0.455-0.231-0.545c-0.123-0.09-0.346-0.116-0.669-0.076
				s-0.655,0.209-0.995,0.509c-0.339,0.298-0.592,0.653-0.761,1.061c-0.169,0.408-0.227,0.762-0.182,1.062
				c0.047,0.3,0.158,0.513,0.335,0.64C170.674,102.099,170.887,102.143,171.138,102.108"/>
			<path clip-path="url(#SVGID_4_)" fill="#FFFFFF" d="M180.377,94.972c1.228-0.058,1.843-0.078,3.071-0.096
				c0.109,0.001,0.19,0.027,0.244,0.079c0.054,0.053,0.081,0.111,0.08,0.174c-0.003,0.353-0.417,1.363-1.18,3.048
				c-0.761,1.686-1.106,2.685-1.101,2.984c0.003,0.124,0.034,0.216,0.093,0.278c0.059,0.061,0.163,0.089,0.31,0.088
				c0.461-0.008,1.172-0.199,2.151-0.558c0.098-0.035,0.193-0.053,0.283-0.052c0.16,0.003,0.239,0.057,0.236,0.164
				c-0.001,0.092-0.083,0.183-0.243,0.279c-0.162,0.094-0.381,0.199-0.66,0.315c-0.28,0.116-0.618,0.243-1.014,0.381
				c-0.395,0.141-0.844,0.261-1.343,0.366c-0.497,0.105-1.019,0.168-1.567,0.19c-0.548,0.022-0.988-0.019-1.326-0.131
				c-0.337-0.111-0.517-0.337-0.539-0.681c-0.016-0.242,0.275-1.212,0.933-2.9c0.246-0.629,0.473-1.282,0.684-1.956
				c0.211-0.676,0.313-1.178,0.301-1.51c-0.005-0.076-0.008-0.115-0.014-0.191C179.773,95.077,179.972,94.984,180.377,94.972"/>
			<path clip-path="url(#SVGID_4_)" fill="#FFFFFF" d="M191.663,99.316c0.612,0.047,0.919,0.074,1.531,0.132
				c0.278,0.032,0.41,0.118,0.393,0.253c-0.012,0.098-0.087,0.167-0.225,0.207c-0.481,0.143-1.89-0.121-2.411,0.129
				c-0.297,0.143-0.565,0.963-0.598,1.367c-0.016,0.181-0.003,0.35,0.037,0.507c0.041,0.156,0.058,0.269,0.053,0.335
				c-0.016,0.177-0.154,0.286-0.416,0.327c-0.262,0.04-0.641,0.041-1.136,0.008c-0.497-0.034-0.82-0.092-0.974-0.18
				c-0.152-0.087-0.224-0.231-0.213-0.432c0.021-0.376,0.169-0.783,0.452-1.22c0.283-0.438,0.641-0.85,1.075-1.235
				c0.433-0.385,0.916-0.756,1.45-1.111c0.532-0.355,1.056-0.651,1.558-0.89c1.122-0.532,1.894-0.766,2.279-0.717
				c0.177,0.022,0.258,0.078,0.248,0.164c-0.012,0.085-0.111,0.173-0.296,0.256c-0.385,0.172-0.864,0.447-1.415,0.835
				c-0.552,0.388-1.043,0.808-1.477,1.257C191.612,99.311,191.629,99.312,191.663,99.316 M194.631,103.332
				c-1.265-0.174-1.858-0.607-1.774-1.344c0.049-0.42,0.448-1.226,1.239-2.403c0.792-1.177,1.239-2,1.306-2.486
				c0.037-0.273-0.058-0.483-0.293-0.631c-0.234-0.147-0.587-0.252-1.06-0.309c-0.473-0.057-0.956-0.078-1.451-0.062
				c-0.495,0.016-0.81,0.021-0.948,0.008c-0.138-0.013-0.203-0.07-0.194-0.171c0.012-0.129,0.32-0.275,0.926-0.43
				c1.168-0.298,2.446-0.359,3.804-0.165c1.076,0.154,1.855,0.439,2.334,0.837c0.479,0.398,0.651,0.945,0.527,1.635
				c-0.074,0.41-0.256,0.906-0.54,1.491c-0.286,0.585-0.558,1.134-0.82,1.649c-0.264,0.513-0.41,0.872-0.443,1.074
				c-0.034,0.202-0.013,0.35,0.062,0.443c0.094,0.119,0.301,0.204,0.619,0.26c0.195,0.035,0.302,0.072,0.32,0.114
				c0.018,0.041,0.025,0.081,0.017,0.12c-0.027,0.152-0.131,0.261-0.308,0.329C197.284,103.547,196.181,103.545,194.631,103.332"/>
			<path clip-path="url(#SVGID_4_)" fill="#FFFFFF" d="M201.766,99.122c1.096,0.209,1.642,0.323,2.732,0.567
				c0.105,0.026,0.174,0.071,0.214,0.134c0.039,0.062,0.05,0.125,0.035,0.19c-0.017,0.063-0.058,0.169-0.124,0.317
				s-0.127,0.329-0.127,0.329c0.067,0.052,1.964-0.583,3.179-0.238c0.739,0.211,1.275,0.54,1.601,0.974
				c0.327,0.435,0.397,0.934,0.22,1.495c-0.344,1.087-2.34,2.212-2.34,2.212c0.003,0.045,2.124,0.373,2.843,0.282
				c0.239-0.03,0.407-0.028,0.504,0.004c0.128,0.043,0.171,0.124,0.13,0.242c-0.028,0.083-0.127,0.145-0.293,0.182
				c-0.751,0.171-1.659,0.181-2.706,0.063c-1.049-0.118-2.162-0.363-3.29-0.629c-0.138-0.032-0.249-0.054-0.32-0.072
				c-0.395-0.101-0.779-0.252-1.151-0.451c-0.372-0.2-0.852-0.677-0.889-0.674c-0.156,0.012-0.726,1.399-0.929,2.304
				c-0.01,0.057-0.016,0.085-0.026,0.143c-0.037,0.164-0.233,0.205-0.588,0.129c-1.026-0.198-1.54-0.288-2.57-0.452
				c-0.088-0.016-0.152-0.052-0.196-0.109c-0.043-0.057-0.058-0.116-0.048-0.174c0.102-0.565,0.638-1.602,1.669-3.087
				c1.031-1.485,1.633-2.487,1.747-3.036c0.025-0.165,0.037-0.248,0.061-0.413c0.026-0.121,0.081-0.203,0.168-0.246
				C201.356,99.065,201.522,99.069,201.766,99.122 M205.593,101.178c-0.737-0.194-1.474,0.123-2.189,0.945
				c-0.328,0.377-0.522,0.702-0.585,0.969c-0.063,0.267-0.054,0.464,0.026,0.59c0.08,0.125,0.273,0.225,0.578,0.3
				c0.304,0.074,0.663,0.035,1.08-0.115c0.417-0.151,0.784-0.379,1.102-0.686c0.317-0.308,0.518-0.606,0.598-0.898
				c0.081-0.293,0.063-0.534-0.053-0.722C206.034,101.373,205.848,101.245,205.593,101.178"/>
			<path clip-path="url(#SVGID_4_)" fill="#FFFFFF" d="M212.883,102.249c1.066,0.353,1.597,0.538,2.654,0.925
				c0.101,0.04,0.165,0.093,0.196,0.162c0.031,0.067,0.035,0.132,0.01,0.193c-0.025,0.062-0.079,0.16-0.164,0.298
				c-0.085,0.138-0.168,0.31-0.168,0.31c0.059,0.061,2.035-0.318,3.204,0.189c0.712,0.308,1.204,0.706,1.476,1.181
				c0.27,0.477,0.278,0.982,0.028,1.514c-0.483,1.034-2.62,1.883-2.62,1.883c-0.004,0.044,2.075,0.656,2.805,0.663
				c0.242,0.003,0.41,0.027,0.503,0.072c0.121,0.059,0.155,0.146,0.101,0.257c-0.039,0.079-0.146,0.127-0.317,0.142
				c-0.773,0.067-1.682-0.045-2.715-0.304c-1.032-0.257-2.113-0.65-3.204-1.063c-0.136-0.052-0.243-0.088-0.311-0.115
				c-0.382-0.154-0.746-0.354-1.092-0.601c-0.346-0.248-0.762-0.784-0.801-0.787c-0.159-0.01-0.903,1.292-1.222,2.163
				c-0.018,0.056-0.027,0.083-0.045,0.138c-0.057,0.158-0.257,0.173-0.602,0.052c-0.998-0.331-1.499-0.488-2.505-0.786
				c-0.085-0.027-0.146-0.072-0.182-0.134c-0.035-0.062-0.043-0.123-0.025-0.18c0.174-0.547,0.841-1.505,2.06-2.844
				c1.22-1.337,1.949-2.253,2.133-2.782c0.045-0.162,0.068-0.242,0.114-0.403c0.04-0.118,0.106-0.191,0.198-0.221
				C212.481,102.14,212.647,102.166,212.883,102.249 M216.44,104.797c-0.711-0.289-1.489-0.075-2.306,0.647
				c-0.376,0.331-0.61,0.627-0.708,0.884c-0.098,0.257-0.114,0.454-0.05,0.589s0.243,0.258,0.538,0.373s0.659,0.124,1.094,0.03
				c0.435-0.093,0.832-0.27,1.187-0.534c0.357-0.262,0.596-0.532,0.713-0.813c0.119-0.279,0.132-0.521,0.04-0.722
				C216.855,105.049,216.686,104.898,216.44,104.797"/>
			<path clip-path="url(#SVGID_4_)" fill="#FFFFFF" d="M228.859,109.573c0.969,0.629,1.45,0.952,2.402,1.614
				c0.093,0.059,0.147,0.127,0.165,0.2c0.018,0.074,0.009,0.137-0.026,0.19c-0.133,0.207-0.452,0.464-0.951,0.779
				c-0.501,0.314-0.995,0.628-1.483,0.942c-0.488,0.313-0.774,0.544-0.864,0.689c-0.089,0.143-0.12,0.252-0.092,0.324
				c0.027,0.072,0.115,0.156,0.265,0.249c0.149,0.094,0.457,0.205,0.928,0.341c0.47,0.134,0.796,0.221,0.977,0.252
				c0.181,0.031,0.309,0.072,0.382,0.121c0.131,0.088,0.164,0.181,0.098,0.279c-0.138,0.205-0.824,0.127-2.044-0.178
				c-0.412-0.103-0.883-0.265-1.411-0.483c-0.528-0.218-1.04-0.474-1.539-0.77c-0.832-0.491-1.092-1.523-1.124-1.554
				c-0.107-0.103-1.641-0.017-2.557-0.496c-0.629-0.329-1.096-0.729-1.406-1.209c-0.337-0.523-0.361-1.092-0.062-1.707
				c0.315-0.649,0.839-1.136,1.571-1.45c0.808-0.348,1.709-0.419,2.688-0.19c0.541,0.128,1.085,0.341,1.627,0.642
				c0.832,0.461,1.607,1.582,1.644,1.588c0.004,0.001,0.032-0.041,0.054-0.079c0.041-0.076,0.062-0.114,0.103-0.19
				C228.29,109.332,228.508,109.363,228.859,109.573 M223.969,111.684c0.658,0.361,1.437,0.248,2.363-0.332
				c0.425-0.266,0.711-0.516,0.849-0.753c0.138-0.238,0.185-0.43,0.138-0.578s-0.214-0.305-0.504-0.47
				c-0.291-0.165-0.667-0.234-1.125-0.203c-0.457,0.032-0.88,0.16-1.265,0.384c-0.384,0.224-0.646,0.472-0.789,0.739
				c-0.143,0.267-0.18,0.505-0.111,0.715C223.593,111.393,223.741,111.559,223.969,111.684"/>
			<path clip-path="url(#SVGID_4_)" fill="#FFFFFF" d="M233.845,112.982c1.003,0.669,1.499,1.014,2.483,1.722
				c0.089,0.066,0.14,0.137,0.152,0.212c0.014,0.075,0.008,0.129-0.019,0.164c-0.026,0.035-0.081,0.084-0.165,0.147
				c-0.084,0.062-0.187,0.137-0.31,0.224c-0.123,0.085-0.235,0.167-0.235,0.167c0.005,0.013,0.945-0.025,1.485,0.09
				c0.54,0.116,0.961,0.296,1.261,0.534c0.634,0.504,0.861,0.87,0.689,1.081c-0.173,0.212-0.465,0.397-0.871,0.557
				c-0.407,0.16-0.726,0.234-0.943,0.207c-0.103-0.013-0.209-0.065-0.313-0.146c-0.103-0.081-0.178-0.185-0.225-0.308
				c-0.212-0.549-0.559-1.01-1.038-1.372c-0.183-0.138-0.425-0.333-0.507-0.329c-0.234,0.012-1,0.64-1.792,1.138
				c-0.795,0.499-1.229,0.786-1.317,0.845c-0.14,0.093-0.278,0.092-0.411-0.003c-0.472-0.337-0.995-0.673-1.571-1.003
				c-0.575-0.328-0.904-0.514-0.986-0.567c-0.08-0.054-0.131-0.115-0.151-0.182c-0.019-0.066-0.013-0.127,0.022-0.178
				c0.034-0.052,0.227-0.194,0.583-0.424c0.355-0.23,0.743-0.473,1.165-0.726c0.423-0.255,0.857-0.552,1.302-0.895
				c0.444-0.341,0.766-0.653,0.959-0.935c0.041-0.065,0.062-0.097,0.103-0.162C233.291,112.702,233.508,112.748,233.845,112.982"/>
			<path clip-path="url(#SVGID_4_)" fill="#FFFFFF" d="M244.319,126.792c0.102,0.106,0.114,0.196,0.035,0.273
				c-0.078,0.075-0.22,0.074-0.424-0.005c-0.204-0.079-0.447-0.186-0.726-0.319c-0.28-0.133-0.651-0.329-1.114-0.584
				c-1.065-0.584-2.126-1.362-3.203-2.331c-2.045-1.839-2.681-3.21-1.803-4.295c0.429-0.53,1.017-0.832,1.77-0.894
				c0.755-0.061,1.579,0.103,2.464,0.503c0.884,0.399,1.74,0.979,2.552,1.738c0.81,0.758,1.304,1.427,1.486,1.978
				c0.182,0.552,0.105,0.992-0.222,1.319c-0.337,0.337-0.784,0.438-1.339,0.315c-0.556-0.124-1.167-0.408-1.841-0.842
				c-0.678-0.437-2.008-1.632-2.211-1.601c-0.14,0.022-0.167,0.987,0.375,1.646c0.138,0.169,0.3,0.336,0.478,0.503
				c0.707,0.658,1.877,1.443,3.509,2.442C244.206,126.698,244.277,126.749,244.319,126.792 M240.114,121.635
				c0.017,0.141,1.243,0.57,1.782,0.616c0.54,0.045,0.97-0.099,1.291-0.443c0.085-0.09,0.115-0.198,0.089-0.322
				c-0.026-0.125-0.115-0.26-0.267-0.402c-0.154-0.142-0.363-0.236-0.624-0.284c-0.261-0.048-0.526-0.036-0.792,0.03
				C241.038,120.967,240.108,121.582,240.114,121.635"/>
			<path clip-path="url(#SVGID_4_)" fill="#FFFFFF" d="M250.343,124.472c0.916,0.969,1.368,1.464,2.259,2.474
				c0.076,0.092,0.115,0.176,0.114,0.255c-0.001,0.08-0.026,0.14-0.074,0.181c-0.27,0.227-1.332,0.54-3.154,1.007
				c-1.821,0.468-2.823,0.835-3.046,1.034c-0.093,0.083-0.141,0.169-0.145,0.258c-0.004,0.088,0.048,0.193,0.154,0.313
				c0.333,0.376,0.985,0.839,1.956,1.423c0.097,0.058,0.177,0.125,0.24,0.202c0.112,0.136,0.128,0.238,0.045,0.306
				c-0.071,0.057-0.199,0.049-0.385-0.023c-0.187-0.072-0.424-0.187-0.711-0.345c-0.288-0.158-0.624-0.357-1.012-0.593
				c-0.389-0.236-0.8-0.528-1.234-0.871c-0.433-0.341-0.852-0.729-1.257-1.162c-0.404-0.433-0.686-0.819-0.841-1.166
				c-0.154-0.346-0.111-0.64,0.136-0.881c0.172-0.169,1.113-0.569,2.859-1.133c0.651-0.211,1.309-0.45,1.969-0.718
				c0.662-0.267,1.116-0.512,1.358-0.738c0.054-0.054,0.081-0.081,0.136-0.136C249.834,124.044,250.045,124.148,250.343,124.472"/>
		</g>
	</g>
</g>
</svg>
