<?xml version="1.0" encoding="utf-8"?>
<!-- Generator: Adobe Illustrator 17.1.0, SVG Export Plug-In . SVG Version: 6.00 Build 0)  -->
<!DOCTYPE svg PUBLIC "-//W3C//DTD SVG 1.1//EN" "http://www.w3.org/Graphics/SVG/1.1/DTD/svg11.dtd">
<svg version="1.1" xmlns="http://www.w3.org/2000/svg" xmlns:xlink="http://www.w3.org/1999/xlink" x="0px" y="0px"
	 viewBox="112.667 0 566.666 612" enable-background="new 112.667 0 566.666 612" xml:space="preserve">
<g id="Layer_2">
	<ellipse fill="#00ACED" cx="396" cy="306" rx="283.333" ry="306"/>
	<path fill="none" stroke="#000000" stroke-miterlimit="10" d="M166.311,159.629"/>
</g>
<g id="Layer_3">
	<path fill="#FFFFFF" d="M351.843,178.912c0,0,12.868-81.751-25.736-102.946c0,0-58.285-29.521-84.779,30.278v270.232
		c0,0,21.054,127.754,132.467,138.522c76.639,7.407,146.584,3.07,170.043,1.514c9.834-0.652,12.508-5.061,19.763-11.733
		c19.984-18.38,11.544-96.512-24.033-96.512c-87.82,0-141.55-1.514-141.55-1.514s-40.119-10.597-43.146-43.146v-69.671
		l173.467-0.338c12.138-0.024,20.834-6.881,30.763-13.864c46.322-32.58-3.104-98.532-22.561-99.309
		C430.131,176.178,351.843,178.912,351.843,178.912z"/>
</g>
</svg>
