<?xml version="1.0" encoding="utf-8"?>
<!-- Generator: Adobe Illustrator 17.1.0, SVG Export Plug-In . SVG Version: 6.00 Build 0)  -->
<!DOCTYPE svg PUBLIC "-//W3C//DTD SVG 1.1//EN" "http://www.w3.org/Graphics/SVG/1.1/DTD/svg11.dtd">
<svg version="1.1" xmlns="http://www.w3.org/2000/svg" xmlns:xlink="http://www.w3.org/1999/xlink" x="0px" y="0px"
	 viewBox="112.667 0 566.666 612" enable-background="new 112.667 0 566.666 612" xml:space="preserve">
<g id="Layer_2">
	<ellipse fill="#00ACED" cx="396" cy="306" rx="283.333" ry="306"/>
	<path fill="none" stroke="#000000" stroke-miterlimit="10" d="M166.311,159.629"/>
</g>
<g id="Layer_3">
	<path fill="#FFFFFF" d="M355.607,188.906c0,0,10.978-69.74-21.955-87.821c0,0-49.722-25.184-72.323,25.83v230.53
		c0,0,17.961,108.985,113.005,118.171c65.38,6.319,125.048,2.619,145.061,1.292c8.39-0.556,10.671-4.317,16.859-10.009
		c17.048-15.68,9.848-82.332-20.502-82.332c-74.917,0-120.754-1.291-120.754-1.291s-34.224-9.04-36.807-36.807v-59.435
		l147.981-0.289c10.355-0.02,17.774-5.87,26.243-11.827c39.517-27.794-2.648-84.056-19.246-84.719
		C422.392,186.574,355.607,188.906,355.607,188.906z"/>
</g>
</svg>
