<?xml version="1.0" encoding="utf-8"?>
<!-- Generator: Adobe Illustrator 17.1.0, SVG Export Plug-In . SVG Version: 6.00 Build 0)  -->
<!DOCTYPE svg PUBLIC "-//W3C//DTD SVG 1.1//EN" "http://www.w3.org/Graphics/SVG/1.1/DTD/svg11.dtd">
<svg version="1.1" id="Layer_2" xmlns="http://www.w3.org/2000/svg" xmlns:xlink="http://www.w3.org/1999/xlink" x="0px" y="0px"
	 viewBox="0 0 339.92 367.114" enable-background="new 0 0 339.92 367.114" xml:space="preserve">
<ellipse fill="#00ACED" cx="169.96" cy="183.557" rx="169.96" ry="183.557"/>
<path fill="#FFFFFF" d="M287.709,93.592c0,0-11.705,9.772-29.599,10.963c-3.105,0.207-73.085-48.601-80.028,43.12
	c0,0-50.953,1.237-96.781-48.697c-3.077-3.353-15.587,44.951,14.378,61.395c0,0-5.557,6.688-20.464-5.025
	c-2.558-2.01,11.876,45.665,36.999,45.587c0,0,1.704,3.07-20.738,1.736c-2.556-0.152,22.656,34.898,43.303,32.157
	c0,0-21.187,21.827-68.334,20.098c-6.722-0.246,66.142,50.611,155.914-7.275c0,0,47.079-34.566,48.358-112.036
	c0,0,13.795-7.217,23.204-23.661l-26.128,7.126C267.793,119.081,283.507,110.493,287.709,93.592z"/>
<path fill="none" stroke="#000000" stroke-miterlimit="10" d="M32.179,95.755"/>
</svg>
